<svg width="21" height="21" viewBox="0 0 21 21" fill="none" xmlns="http://www.w3.org/2000/svg">
<path fill-rule="evenodd" clip-rule="evenodd" d="M1.31255 10.5C1.31255 10.6741 1.38169 10.841 1.50476 10.9641C1.62783 11.0871 1.79475 11.1563 1.9688 11.1563L17.4471 11.1563L13.3167 15.2854C13.2557 15.3464 13.2073 15.4189 13.1742 15.4986C13.1412 15.5783 13.1242 15.6637 13.1242 15.75C13.1242 15.8363 13.1412 15.9218 13.1742 16.0015C13.2073 16.0812 13.2557 16.1536 13.3167 16.2147C13.3777 16.2757 13.4501 16.3241 13.5298 16.3571C13.6096 16.3901 13.695 16.4071 13.7813 16.4071C13.8676 16.4071 13.953 16.3901 14.0328 16.3571C14.1125 16.3241 14.1849 16.2757 14.2459 16.2147L19.4959 10.9647C19.557 10.9037 19.6055 10.8313 19.6386 10.7515C19.6717 10.6718 19.6887 10.5863 19.6887 10.5C19.6887 10.4137 19.6717 10.3282 19.6386 10.2485C19.6055 10.1688 19.557 10.0964 19.4959 10.0354L14.2459 4.7854C14.1849 4.72439 14.1125 4.67599 14.0328 4.64296C13.953 4.60994 13.8676 4.59295 13.7813 4.59295C13.695 4.59295 13.6096 4.60994 13.5298 4.64296C13.4501 4.67599 13.3777 4.72439 13.3167 4.7854C13.2557 4.84642 13.2073 4.91885 13.1742 4.99857C13.1412 5.07829 13.1242 5.16374 13.1242 5.25003C13.1242 5.33632 13.1412 5.42176 13.1742 5.50148C13.2073 5.5812 13.2557 5.65364 13.3167 5.71465L17.4471 9.84378L1.9688 9.84378C1.79475 9.84378 1.62783 9.91292 1.50476 10.036C1.38169 10.1591 1.31255 10.326 1.31255 10.5Z" fill="white"/>
</svg>
