<svg width="96" height="106" viewBox="0 0 96 106" fill="none" xmlns="http://www.w3.org/2000/svg">
<path d="M27.4011 64.4101C27.0653 64.6094 26.7353 64.8024 26.7078 65.2742L26.6915 65.4917C26.8034 66.2026 27.1055 66.9256 26.5333 67.5935L26.5224 67.7385C26.564 67.8425 26.6463 67.9485 26.6397 68.0499C26.6001 68.6656 26.5209 69.2791 26.4909 69.8947C26.4052 71.6333 26.2984 73.372 26.2732 75.1107C26.2526 76.5699 26.2987 78.0318 26.382 79.4872C26.4529 80.7239 26.7076 81.9334 27.0611 83.1174C27.5376 84.7114 28.1733 86.2313 29.1185 87.5817C30.5774 89.665 32.4813 91.018 35.0851 91.1113C35.5754 91.1289 36.0694 91.1241 36.5591 91.0839C37.6538 90.9929 38.6094 90.584 39.2181 89.583C39.5527 89.0322 39.6864 88.4113 39.4595 87.7748C39.2732 87.253 38.811 87.1387 38.4439 87.5495C38.2163 87.804 38.0684 88.1333 37.8816 88.4268C37.6691 88.7601 37.4979 89.1373 37.2303 89.4151C36.1754 90.5092 34.894 90.3614 33.6332 90.0306C32.7995 89.8121 32.0842 89.3191 31.4203 88.7543C29.4267 87.0596 28.2726 84.911 28.1119 82.2189C28.1058 82.1138 28.1362 82.0063 28.1498 81.8998C28.333 82.05 28.4117 82.2286 28.5337 82.366C28.9073 82.7861 29.2613 83.2373 29.6918 83.588C30.1424 83.9551 30.5411 83.9127 30.9938 83.5234C31.4006 83.1726 31.7845 82.7876 32.1392 82.3816C32.332 82.1609 32.4665 81.8751 32.5852 81.6002C32.7755 81.1598 32.6732 80.7954 32.3479 80.4497C32.1331 80.2207 31.8626 80.0067 31.8966 79.5858C32.0239 79.6103 32.1123 79.6262 32.2008 79.6442C32.7641 79.7585 33.3235 79.8942 33.891 79.9812C34.4116 80.0609 34.847 79.877 35.0938 79.3629C35.466 78.5886 35.7108 77.7893 35.5404 76.914C35.4694 76.548 35.2797 76.3956 34.9103 76.3854C34.7708 76.3818 34.6315 76.3752 34.4924 76.3679C33.892 76.629 33.2337 76.7548 32.5608 76.7123C30.8473 76.6039 29.387 75.4439 28.849 73.7938C28.769 73.8007 28.689 73.8022 28.6101 73.7972C27.691 73.7391 27.0011 72.9225 27.0723 71.9771C27.1434 71.032 27.9489 70.3102 28.868 70.3683C28.947 70.3733 29.0256 70.3844 29.1042 70.402C29.1423 70.3258 29.1863 70.2528 29.228 70.1792C29.2814 69.8866 29.4418 69.2176 29.4526 69.1715C29.6433 68.3651 29.7524 67.5193 30.5075 66.9823C30.6153 66.9058 30.709 66.6716 30.6776 66.5482C30.5889 66.2023 30.5818 65.7565 30.0478 65.7557C30.0825 65.6892 30.0911 65.6424 30.1148 65.6324C30.5224 65.4502 30.4845 65.0355 30.5251 64.7084C30.533 64.6435 30.5082 64.5723 30.4695 64.5012C30.4695 64.5012 29.0423 63.456 27.4011 64.4101ZM31.8694 72.6331C31.8534 72.8466 31.6723 73.0086 31.4649 72.9955C31.2575 72.9824 31.1024 72.7991 31.1185 72.5856C31.1345 72.3726 31.3156 72.2101 31.523 72.2233C31.7304 72.2364 31.8854 72.4201 31.8694 72.6331ZM34.5966 72.8056C34.5806 73.0191 34.3997 73.1811 34.1923 73.168C33.9847 73.1549 33.8298 72.9716 33.8459 72.7581C33.8619 72.5451 34.0428 72.3826 34.2504 72.3958C34.4578 72.4089 34.6126 72.5926 34.5966 72.8056ZM36.7464 71.214C36.4707 70.1846 35.806 69.3157 34.9122 68.7968C34.6905 68.6679 34.4543 68.5607 34.207 68.4777C34.0831 68.4367 33.9564 68.4013 33.8272 68.3724C33.6333 68.3292 33.4332 68.3006 33.2289 68.2876C33.0239 68.2747 32.8219 68.2779 32.6235 68.2963C32.4908 68.3086 32.3603 68.3277 32.2314 68.3528C31.9737 68.4038 31.7241 68.4802 31.4851 68.58C30.5118 68.9857 29.7174 69.7754 29.2933 70.7749C29.1639 70.7221 29.0258 70.6872 28.879 70.678C28.1206 70.63 27.4581 71.223 27.3994 72.0033C27.3407 72.7835 27.9081 73.4547 28.6665 73.5027C28.8133 73.512 28.9555 73.4949 29.0914 73.4589C29.5112 75.0785 30.8918 76.309 32.6172 76.4181C34.3309 76.5265 35.8739 75.4964 36.5396 73.9622C36.6381 73.9927 36.7409 74.0134 36.8485 74.0202C37.6067 74.0681 38.269 73.4747 38.3277 72.6945C38.3864 71.9142 37.8192 71.2434 37.061 71.1954C36.9534 71.1886 36.8485 71.1961 36.7464 71.214ZM32.654 75.9301C30.7363 75.8088 29.2965 74.1051 29.4449 72.1327C29.455 71.9992 29.4726 71.8679 29.4963 71.7386C29.7454 70.9314 30.5741 70.3659 31.4206 70.4195C32.1329 70.4645 32.7117 70.9396 32.9412 71.5837C33.2649 70.9746 33.9097 70.5769 34.622 70.622C35.5934 70.6834 36.4226 71.565 36.3474 72.564L36.3477 72.564L36.3282 73.0733C35.9592 74.7934 34.4055 76.0409 32.654 75.9301Z" fill="#D93E75"/>
<path d="M27.3855 65.3418L27.2808 65.0588C27.2555 64.9903 24.7269 58.1552 23.0222 53.7215C21.312 49.2735 18.0097 38.4992 17.9765 38.3909L17.9154 38.191L18.0513 38.0313C19.3105 36.5524 20.476 35.5926 21.2319 35.0479C22.0622 34.4497 22.5939 34.205 22.6161 34.1949L22.9011 34.8752L22.7586 34.5351L22.9016 34.875C22.8967 34.8773 22.3969 35.1092 21.6195 35.6719C20.9294 36.1712 19.8785 37.037 18.7303 38.3581C19.1924 39.8599 22.1253 49.3503 23.6971 53.4383C25.2034 57.3559 27.3516 63.1445 27.8522 64.4959C28.3248 64.3945 29.3265 64.1591 30.501 63.7628C31.4533 63.4415 32.3312 63.0789 33.1102 62.685C34.0741 62.1977 34.8868 61.6619 35.5257 61.0925C36.7958 59.9606 37.7175 58.9125 38.2653 57.9774C38.7715 57.1132 38.8192 56.5742 38.8025 56.3298C38.7523 55.5939 38.385 54.7122 38.3814 54.7034L39.0476 54.3986C39.0647 54.4392 39.467 55.4026 39.5258 56.266C39.5796 57.0546 39.1925 58.803 35.9958 61.652C35.3076 62.2654 34.4397 62.8385 33.4161 63.3555C32.6047 63.7653 31.6931 64.1416 30.7065 64.474C29.0299 65.0387 27.7323 65.2785 27.6779 65.2884L27.3855 65.3418Z" fill="#D93E75"/>
<path d="M29.317 48.7422L28.5942 48.695C28.8637 45.1975 28.8297 42.6529 28.49 40.9158C28.1972 39.4185 27.7261 38.7823 27.3076 38.3036C27.0529 38.0124 26.695 37.886 26.2439 37.9281C25.8704 37.9629 25.573 38.1022 25.5701 38.1036L25.2715 37.4297C25.2876 37.4219 25.6695 37.2398 26.1636 37.1887C26.8545 37.1174 27.4378 37.3291 27.8504 37.8009C28.3671 38.3919 28.8883 39.1592 29.2009 40.758C29.554 42.5633 29.592 45.175 29.317 48.7422Z" fill="#D93E75"/>
<path d="M34.4508 58.8739L33.7368 58.7556C33.7396 58.7391 34.0173 57.0613 33.4998 56.0457C33.1458 55.3513 32.5648 54.8618 31.7726 54.591C31.134 54.3726 30.5904 54.3803 30.5098 54.3908C30.5112 54.3906 30.5415 54.3865 30.5812 54.3693L30.3079 53.6837C30.4079 53.6403 30.6088 53.6303 30.9049 53.6538C31.1371 53.6724 31.4994 53.7213 31.9074 53.8496C32.612 54.0712 33.5718 54.5707 34.1432 55.692C34.775 56.9315 34.4643 58.7952 34.4508 58.8739Z" fill="#D93E75"/>
<path d="M41.989 53.4635C41.4497 53.4293 40.9374 53.2918 40.4541 53.0508C39.7967 52.7228 39.1866 52.1969 38.6407 51.4877C38.1632 50.8674 37.7197 50.0865 37.3225 49.1667C36.6981 47.7211 36.1794 45.9475 35.6902 43.5851C35.1957 41.1971 34.9349 38.951 34.9153 36.9093C34.9005 35.3688 35.0196 33.914 35.2794 32.4617C35.4651 31.4237 35.7684 30.5546 36.1807 29.8783C36.5226 29.3175 36.9402 28.8858 37.4218 28.5954C38.2634 28.0878 39.0111 28.1929 39.0424 28.1976L38.9263 28.9348L38.9293 28.9353C38.9067 28.9322 38.3679 28.8663 37.7425 29.2603C37.3721 29.4937 37.0462 29.8432 36.774 30.2989C36.4212 30.8893 36.1583 31.6585 35.9925 32.5851C35.7412 33.9898 35.626 35.398 35.6404 36.8902C35.6595 38.8825 35.9149 41.0792 36.3995 43.4191C37.0713 46.6629 38.2562 51.1209 40.7791 52.3796C41.2912 52.635 41.8501 52.751 42.4403 52.7241C43.0878 52.6947 43.7961 52.4935 44.5454 52.1262C47.0476 50.8996 47.6652 47.753 47.6712 47.7214L48.383 47.8514C48.3762 47.8877 48.2099 48.7532 47.6975 49.792C47.3954 50.4046 47.0343 50.9523 46.6242 51.4199C46.1063 52.0106 45.5091 52.4742 44.8491 52.7976C43.83 53.2972 42.8732 53.5194 41.989 53.4635Z" fill="#D93E75"/>
<path d="M55.7635 58.5043C55.1295 58.4642 54.5248 58.3013 53.9602 58.0179C53.2239 57.6483 52.5389 57.0642 51.9242 56.2821C51.3845 55.5952 50.882 54.7332 50.4308 53.7202C49.7197 52.1239 49.1267 50.1699 48.5645 47.5711C47.4691 42.5077 47.3022 38.354 48.0683 35.2254C48.3533 34.0617 48.8701 33.0302 49.6045 32.1594C50.1903 31.4648 50.9137 30.8724 51.7546 30.3987C53.1796 29.596 54.4435 29.4125 54.4966 29.4051L54.5831 30.1433L54.5398 29.7742L54.5836 30.1432C54.5717 30.1449 53.3813 30.3208 52.0731 31.0633C51.3143 31.4939 50.6637 32.0291 50.1392 32.654C49.4868 33.4314 49.0266 34.3541 48.7713 35.3964C48.0332 38.411 48.2018 42.4491 49.2724 47.3985C50.0466 50.9775 51.4088 55.9027 54.2867 57.3475C54.8887 57.6497 55.5459 57.7906 56.2401 57.7664C56.9992 57.74 57.8287 57.5163 58.7057 57.1014C59.3624 56.7907 59.9584 56.3437 60.4773 55.7726C60.8971 55.3106 61.2683 54.7664 61.5806 54.1551C62.1186 53.102 62.2965 52.205 62.2983 52.196L63.0095 52.3293C63.0018 52.3694 62.8146 53.3246 62.2326 54.4713C61.8897 55.1468 61.4796 55.7504 61.0136 56.2654C60.4263 56.9144 59.749 57.4231 59.0003 57.7772C58.0342 58.2343 57.1099 58.4812 56.2533 58.511C56.0882 58.5168 55.9249 58.5145 55.7635 58.5043Z" fill="#D93E75"/>
<path d="M43.1331 49.1764L42.5791 48.7049L42.5772 48.7073C42.5821 48.701 43.0737 48.0606 43.4081 46.4648C43.6055 45.5232 43.7101 44.4395 43.719 43.2438C43.7302 41.7463 43.5904 40.0686 43.3037 38.2575C42.9725 36.1655 42.5273 34.5183 41.9805 33.3618C41.5908 32.5374 41.1432 31.9616 40.6862 31.6965C40.2426 31.4392 39.9364 31.5569 39.9236 31.562C39.9288 31.56 39.9314 31.5586 39.9314 31.5586L39.6437 30.8795C39.7049 30.8513 40.2632 30.6157 41.0003 31.0183C41.6005 31.3461 42.1415 32.0043 42.6082 32.9744C43.1972 34.1987 43.672 35.9322 44.0194 38.1265C45.3233 46.3623 43.2232 49.0654 43.1331 49.1764Z" fill="#D93E75"/>
<path d="M57.2282 53.8929L56.6535 53.4482L56.6518 53.4504C56.6569 53.4433 57.1585 52.7298 57.5089 50.9577C57.7153 49.9137 57.8295 48.713 57.8481 47.3892C57.8713 45.7325 57.7443 43.8776 57.4703 41.8761C57.1416 39.4747 56.6859 37.6071 56.1158 36.3253C55.6142 35.1973 55.1242 34.7554 54.8015 34.5834C54.4245 34.3826 54.1669 34.4899 54.1646 34.4911L53.8495 33.8253C53.9077 33.7955 54.4382 33.5452 55.1433 33.921C55.7567 34.2479 56.306 34.9497 56.7762 36.0068C57.3749 37.3531 57.85 39.2891 58.1883 41.761C58.4716 43.8301 58.6006 45.7483 58.572 47.4625C58.5489 48.8418 58.4241 50.0946 58.2011 51.1858C57.8127 53.0869 57.2519 53.8609 57.2282 53.8929Z" fill="#D93E75"/>
<path d="M64.5841 48.6105L62.764 24.8279L66.428 24.3334L66.5112 25.072L63.5415 25.4728L65.2378 47.6367L68.332 46.6906L68.1847 44.8333L68.9074 44.7611L69.1031 47.2288L64.5841 48.6105Z" fill="#D93E75"/>
<path d="M72.5361 42.1523L72.5536 18.0714L74.3619 17.7539L74.4731 18.4882L73.2782 18.698L73.2617 41.4148L75.9607 41.443L76.018 40.6808L76.7409 40.7266L76.6305 42.1952L72.5361 42.1523Z" fill="#D93E75"/>
<path d="M64.1464 23.4364C63.4753 23.394 62.8747 23.1508 62.4277 22.7211C61.7355 22.0558 61.5011 21.0413 61.7676 19.8646C62.0779 18.4946 62.8376 17.8431 63.4203 17.5378C64.0546 17.2056 64.6214 17.2049 64.6452 17.205L64.6298 17.95L64.6318 17.95C64.6275 17.95 64.1932 17.9556 63.7143 18.215C63.0856 18.5555 62.6682 19.1636 62.4737 20.0226C62.3649 20.5027 62.3566 20.9391 62.4488 21.3197C62.5314 21.6602 62.6924 21.9474 62.9275 22.1734C63.4781 22.7026 64.3756 22.8418 65.3283 22.5458C66.3002 22.2438 66.7409 21.913 66.9394 21.6887C67.0338 21.5821 67.0709 21.5012 67.0847 21.4624C67.0917 21.4425 67.0935 21.4313 67.0937 21.4301C67.0938 21.43 67.0938 21.43 67.0938 21.43C67.0938 21.43 67.0937 21.4312 67.0935 21.4326C67.0937 21.434 67.0927 21.4574 67.0927 21.4574L67.8178 21.4356C67.8188 21.5187 67.7971 21.8182 67.4723 22.1851C67.0922 22.6147 66.438 22.9759 65.528 23.2586C65.0531 23.4062 64.5846 23.4641 64.1464 23.4364Z" fill="#D93E75"/>
<path d="M73.6609 49.6871C73.3558 49.6678 73.0763 49.6136 72.8254 49.5249C72.4204 49.3818 72.0895 49.15 71.8417 48.8361C71.3088 48.1611 71.1944 47.1336 71.5195 45.9429C71.8238 44.8285 72.4945 44.2573 73.0037 43.9745C73.5553 43.668 74.0427 43.627 74.0632 43.6254L74.1066 44.3683L74.1085 44.3682C74.1048 44.3685 73.7327 44.4039 73.3154 44.6428C72.772 44.9538 72.4026 45.4554 72.2174 46.1336C71.9575 47.0855 72.0251 47.8766 72.4077 48.3613C72.5706 48.5677 72.7938 48.7221 73.0709 48.8201C73.3858 48.9313 73.7716 48.9715 74.2176 48.9395C75.0639 48.8786 75.7626 48.6357 76.2379 48.2367C76.5889 47.9422 76.6995 47.6608 76.7006 47.6581L76.6989 47.6627L77.3801 47.907C77.3571 47.972 76.789 49.5007 74.2567 49.6827C74.0488 49.6976 73.8499 49.699 73.6609 49.6871Z" fill="#D93E75"/>
<path fill-rule="evenodd" clip-rule="evenodd" d="M49.3933 38.1223C49.1113 35.6579 48.6054 33.5736 48.2993 31.8043L48.2865 31.7324C47.9804 29.9635 47.392 28.7166 46.9618 27.9048C46.532 27.0934 46.0528 26.4782 45.5454 26.0554C45.0377 25.6325 44.6446 25.3925 44.3654 25.335C44.0869 25.2779 43.6573 25.306 43.0739 25.4021C41.507 25.6721 39.9037 26.5656 38.283 28.0783C36.6625 29.591 36.2538 33.4412 36.9997 39.6594C38.038 48.2838 40.4455 52.2716 44.2951 51.6842C45.2415 51.5354 46.06 51.2442 46.7637 50.7701C47.4678 50.2961 48.0846 49.5591 48.6181 48.5774C49.1514 47.595 49.4927 46.2216 49.6221 44.4603C49.7516 42.6994 49.675 40.5865 49.3933 38.1223ZM45.2282 44.6512C44.9794 46.6785 44.6018 47.723 44.0985 47.8032C43.5303 47.747 42.9348 46.8186 42.3099 44.9999C41.6847 43.1816 41.2421 41.1034 40.9821 38.7655C40.33 33.089 40.6552 30.1885 41.9478 30.0091C42.7344 29.8918 43.4264 30.7827 44.0104 32.7211C44.5944 34.6595 44.9983 36.6332 45.2387 38.6203C45.4794 40.6078 45.477 42.6239 45.2282 44.6512Z" fill="white"/>
<path fill-rule="evenodd" clip-rule="evenodd" d="M64.6948 41.4588C64.389 38.7211 63.8198 36.408 63.4797 34.4442L63.4659 34.3639C63.1258 32.3997 62.4535 31.019 61.9607 30.1212C61.4683 29.223 60.9171 28.5437 60.3309 28.0785C59.7448 27.6136 59.2899 27.3504 58.9666 27.2898C58.643 27.2288 58.1434 27.2645 57.4644 27.3772C55.6415 27.6935 53.7696 28.7034 51.8725 30.4024C49.9757 32.101 49.466 36.3872 50.2768 43.2944C51.4062 52.8748 54.1685 57.2854 58.6475 56.5927C59.7489 56.4177 60.7026 56.0856 61.525 55.5509C62.3474 55.0163 63.0712 54.1906 63.6997 53.0932C64.3286 51.9958 64.7373 50.4649 64.9036 48.5049C65.0698 46.5452 65.0002 44.1964 64.6948 41.4588ZM59.7953 48.7619C59.4879 51.0189 59.0396 52.1843 58.454 52.2786C57.7942 52.2217 57.1108 51.1953 56.4007 49.1795C55.6903 47.1637 55.1945 44.857 54.9134 42.2597C54.2063 35.9536 54.6103 32.7248 56.1148 32.512C57.0298 32.374 57.8263 33.3574 58.4873 35.5072C59.1483 37.657 59.6002 39.8478 59.862 42.0552C60.1238 44.2626 60.1027 46.5046 59.7953 48.7619Z" fill="white"/>
<path fill-rule="evenodd" clip-rule="evenodd" d="M70.4593 45.6822L66.6347 46.9379L64.7893 23.7372L69.1158 23.0489L70.4593 45.6822Z" fill="white"/>
<path fill-rule="evenodd" clip-rule="evenodd" d="M40.6722 51.2948C40.058 49.5899 39.0088 48.6784 37.5249 48.5588C36.0409 48.4398 34.7494 48.5346 33.6502 48.8437C35.6191 42.2335 36.1158 37.5342 35.1135 34.7536L35.1251 34.7059C33.8302 31.1138 30.9548 29.9329 26.473 31.1706C25.2428 31.5165 23.9964 32.1352 22.7253 33.0068C21.4546 33.8781 20.5532 34.7349 19.9877 35.5642C21.2297 39.7301 22.6233 44.0762 24.2662 48.5541L26.7178 55.1954C28.4338 59.876 29.3307 62.2836 29.479 62.3761L32.0332 61.5462L33.1667 61.0933C34.854 60.418 36.4204 59.4858 37.8577 58.277C39.2954 57.0682 40.2253 55.8904 40.6478 54.7437C41.0699 53.5967 41.0893 52.4516 40.6722 51.2948ZM29.8653 48.7684L26.05 36.616C26.5952 36.0278 27.1603 35.6499 27.7209 35.4889C27.717 35.49 27.7133 35.4906 27.7093 35.4917L27.7351 35.4846C27.7304 35.4859 27.7257 35.4875 27.7209 35.4889C28.7926 35.1924 29.5439 35.6386 29.973 36.8291C31.2259 40.2272 31.1899 44.207 29.8653 48.7684ZM35.6249 55.1761C35.5262 55.6863 35.3657 56.1043 35.1363 56.4098C34.9072 56.7157 34.5865 57.0033 34.1744 57.2727C33.763 57.5421 33.432 57.7226 33.2011 57.7875L31.1553 52.1122C31.4603 51.9388 31.7542 51.8122 32.0366 51.733C32.8325 51.5092 33.5348 51.5748 34.1764 51.9425C34.8184 52.3105 35.2498 52.8031 35.4796 53.4405L35.4284 53.4547C35.6582 54.0921 35.7239 54.6659 35.6249 55.1761Z" fill="white"/>
<path fill-rule="evenodd" clip-rule="evenodd" d="M73.693 47.7184C73.3124 47.2539 73.136 46.6592 73.1452 45.9551C73.1549 45.2719 73.4072 44.5605 73.9033 43.8419C74.3988 43.1232 75.1615 42.748 76.1906 42.7167C77.22 42.6855 77.9714 42.8698 78.4257 43.2698C78.8807 43.6699 79.1121 44.1802 79.1207 44.8213C79.1704 47.0965 77.9297 48.3273 75.6203 48.3449C74.9866 48.3049 74.0739 48.1829 73.693 47.7184Z" fill="white"/>
<path fill-rule="evenodd" clip-rule="evenodd" d="M64.046 21.4127C63.6655 20.9482 63.489 20.3536 63.4982 19.6495C63.5079 18.9663 63.7602 18.2549 64.2563 17.5362C64.7518 16.8175 65.5146 16.4424 66.5436 16.4111C67.573 16.3798 68.3244 16.5641 68.7787 16.9641C69.2338 17.3642 69.4651 17.8745 69.4738 18.5156C69.5235 20.7908 68.2828 22.0216 65.9734 22.0393C65.3397 21.9992 64.427 21.8772 64.046 21.4127Z" fill="white"/>
<path d="M74.355 16.026L74.1483 40.6919L78.5165 40.7137L79.6703 15.5141L74.355 16.026Z" fill="white"/>
</svg>
