<svg width="132" height="33" viewBox="0 0 132 33" fill="none" xmlns="http://www.w3.org/2000/svg">
<path fill-rule="evenodd" clip-rule="evenodd" d="M15.4357 4.15947V2.69079C15.4357 2.69079 13.2451 2.00541 12.1498 1.61377C11.0545 1.22214 9.68737 1.53946 9.96837 2.22739C10.2113 2.82152 11.8063 3.30706 13.1689 4.12933C14.0863 4.68292 14.4001 4.97284 14.2784 6.73525C14.1567 8.49767 13.6798 9.74046 16.1038 9.47679C19.0673 9.15446 20.4029 8.69036 23.9076 7.41858C23.9076 7.41858 22.0075 1.68231 20.0603 0.605286C20.0603 0.605286 18.7216 3.27829 15.4357 4.15949" fill="#E65B2E"/>
<path fill-rule="evenodd" clip-rule="evenodd" d="M27.3622 8.55218C29.3875 7.7351 31.0743 6.66796 31.5 7.57306C33.2038 11.1958 25.1365 15.894 25.1365 15.894C34.2098 11.4661 32.5953 7.47515 31.8651 6.59394C31.1349 5.71273 30.283 5.81064 26.8754 7.18141C22.0959 9.10411 18.5682 10.4125 15.1922 10.4125C12.6366 10.4125 8.25539 10.1188 2.41382 7.18141C2.41382 7.18141 8.62048 11.7833 15.1922 11.7833C20.9006 11.7833 25.4162 9.33733 27.3622 8.55218Z" fill="#E65B2E"/>
<path fill-rule="evenodd" clip-rule="evenodd" d="M0.711426 5.11235C2.65861 4.6228 3.14541 5.69983 5.0926 6.58103C3.47278 6.93224 2.60275 5.36125 0.711426 5.11235Z" fill="#BA3F20"/>
<path fill-rule="evenodd" clip-rule="evenodd" d="M10.459 0.218118C12.3405 -0.289948 12.9354 0.676737 14.9498 1.45396C13.3141 1.96203 12.8273 0.297533 10.459 0.218118Z" fill="#BA3F20"/>
<path fill-rule="evenodd" clip-rule="evenodd" d="M16.6873 13.7562C16.6872 14.0568 16.6079 14.3539 16.4549 14.6276C16.1325 14.5391 15.7947 14.4935 15.4545 14.4925C15.1179 14.4915 14.7826 14.5254 14.4565 14.5933C14.2887 14.3201 14.2024 14.0185 14.2046 13.7131C14.2046 13.0737 14.2326 12.8172 15.4058 12.8172C16.579 12.8172 16.6666 13.1217 16.6873 13.7562" fill="#ECB87F"/>
<path fill-rule="evenodd" clip-rule="evenodd" d="M14.994 13.6916C14.9969 13.9741 15.0891 14.2512 15.2617 14.4964C14.9897 14.5058 14.7197 14.5383 14.4561 14.5934C14.2883 14.3201 14.2019 14.0186 14.2041 13.7132C14.2041 13.0944 14.2308 12.8339 15.2946 12.8182C15.0961 13.0809 14.992 13.3834 14.994 13.6916Z" fill="#ECB87F"/>
<path fill-rule="evenodd" clip-rule="evenodd" d="M15.3874 15.178C17.3178 15.178 18.5219 16.6431 23.5819 18.2816C23.5297 18.6621 23.3872 19.0309 23.1624 19.3673C21.651 19.6983 19.7763 18.6294 19.7763 18.6294C19.867 19.0423 21.4607 20.4907 22.7941 20.5159C22.7941 20.5159 22.5013 20.9797 20.8219 21.2992C21.0772 21.6307 21.462 21.8829 21.9146 22.0156C19.4661 23.9366 20.222 25.2553 15.446 29.0159C15.6729 27.8734 16.2854 26.9384 15.7429 26.1017C15.118 25.1383 13.8335 24.8343 13.4958 24.0017C13.1033 22.8723 14.5153 22.5799 14.7128 20.9193C13.2519 21.1115 11.754 20.9686 10.3874 20.5069C10.3874 20.5069 13.1662 19.4867 13.6684 17.8045C13.6684 17.8045 10.5555 18.7605 7.3103 18.2816C12.3367 16.198 13.457 15.178 15.3874 15.178" fill="#3AB563"/>
<path fill-rule="evenodd" clip-rule="evenodd" d="M8.58795 20.2085C8.58795 20.2085 9.00125 21.5888 10.1852 22.4403C11.1578 23.1399 11.4595 24.0495 11.7847 24.8497C11.183 24.054 10.4535 23.3271 9.61537 22.6883C8.48758 21.8765 8.58799 20.2085 8.58799 20.2085" fill="#1D753D"/>
<path fill-rule="evenodd" clip-rule="evenodd" d="M23.4065 16.0966C25.2624 16.7244 27.2434 17.072 29.2525 17.1223L27.4454 19.8806L26.207 19.9602C27.9975 20.4362 29.5345 21.3948 30.5638 22.6776C24.5091 24.9753 19.2861 28.5043 15.3996 32.9232C14.0495 31.9263 12.7699 30.8682 11.5669 29.7539C12.9527 30.3825 14.2159 31.1753 15.315 32.106C17.5066 29.5644 19.961 27.1796 22.6515 24.9774C24.266 23.6369 25.865 22.45 27.4005 21.4025C26.4877 20.9822 25.5749 20.562 24.662 20.1418L26.9847 17.48C26.9847 17.48 24.514 17.0885 23.4066 16.0966" fill="#E65B2E"/>
<path fill-rule="evenodd" clip-rule="evenodd" d="M7.3223 16.0969C7.3223 16.0969 5.65441 16.9371 2.33189 17.2646L4.85314 20.0059C4.85314 20.0059 2.0414 21.0419 0.165039 22.6778C2.48855 23.5606 4.6993 24.6275 6.76516 25.8631C5.44571 24.3708 3.85747 23.0484 2.05381 21.9405L2.7374 22.0246C3.78257 21.3247 4.89606 20.6951 6.06685 20.1421L3.7441 17.4803C3.7441 17.4803 6.21484 17.0887 7.32229 16.0969" fill="#BA3F20"/>
<path fill-rule="evenodd" clip-rule="evenodd" d="M23.6917 12.0245C23.8752 11.9261 25.0227 11.572 25.078 12.4918C25.1388 13.5011 24.3594 14.7953 24.3594 14.7953C24.8309 12.4999 24.5012 12.1296 23.9195 12.2272C23.7889 12.2435 23.6917 12.0245 23.6917 12.0245Z" fill="#ECB87F"/>
<path fill-rule="evenodd" clip-rule="evenodd" d="M23.9072 7.41836C23.4374 7.58873 23.0066 7.74539 22.6062 7.88834C21.9739 5.41923 21.1189 2.99131 20.0481 0.624255L20.0603 0.605652C22.0075 1.68268 23.9072 7.41836 23.9072 7.41836Z" fill="#FF8142"/>
<path fill-rule="evenodd" clip-rule="evenodd" d="M18.2675 9.16316C17.6164 9.28751 16.9227 9.38738 16.1038 9.47648C13.6795 9.74084 14.1566 8.49736 14.2783 6.73495C14.4 4.97253 14.086 4.68271 13.1684 4.12951C11.8065 3.30705 10.2111 2.82131 9.96893 2.22708C9.68769 1.53974 11.0544 1.22251 12.1497 1.61415C13.245 2.0058 15.4355 2.69118 15.4355 2.69118V4.15987C15.9774 4.01406 16.4943 3.81304 16.9739 3.56163C16.543 4.66901 16.0113 6.55283 17.4351 8.31917C17.6846 8.61802 17.9629 8.90024 18.2675 9.16317" fill="#BA3F20"/>
<path fill-rule="evenodd" clip-rule="evenodd" d="M31.4479 6.83436C30.8025 6.60065 30.1562 6.43008 25.0504 8.44609C22.7242 9.377 20.2158 9.97052 17.6384 10.1999L17.6398 10.1988C20.3158 9.75625 23.2317 8.64691 26.8755 7.18117C30.2831 5.8104 31.135 5.71249 31.8652 6.5937C32.3384 7.25087 32.5427 8.01322 32.4486 8.77086C32.4486 8.77086 32.2139 7.11185 31.4479 6.83436" fill="#FF8142"/>
<path fill-rule="evenodd" clip-rule="evenodd" d="M20.2854 11.1606C18.6332 11.5658 16.9179 11.7755 15.1923 11.7833C8.72274 11.7833 2.60735 7.32441 2.4187 7.18439C4.22546 8.10738 6.15233 8.86494 8.16413 9.44322L8.16656 9.4442C8.28351 9.51273 12.717 12.0575 20.2854 11.1606" fill="#BA3F20"/>
<path fill-rule="evenodd" clip-rule="evenodd" d="M14.994 13.6916C14.9969 13.9741 15.0891 14.2512 15.2617 14.4964C14.9897 14.5058 14.7197 14.5383 14.4561 14.5934C14.2883 14.3201 14.2019 14.0186 14.2041 13.7132C14.2041 13.0944 14.2308 12.8339 15.2946 12.8182C15.0961 13.0809 14.992 13.3834 14.994 13.6916Z" fill="#CC9666"/>
<path fill-rule="evenodd" clip-rule="evenodd" d="M19.7766 18.6292C19.8667 19.0424 21.4609 20.4905 22.7947 20.516C22.7947 20.516 22.5014 20.9801 20.822 21.2993C21.0776 21.6305 21.4624 21.8825 21.9149 22.015C19.4663 23.9361 20.222 25.2549 15.4465 29.0157C16.6412 27.9666 17.6758 26.8042 18.528 25.5536C18.8886 24.9943 19.2084 24.4182 19.4857 23.8284C19.7205 23.3694 19.901 22.8934 20.0249 22.4067C20.1173 21.9986 20.1581 21.5839 20.1466 21.1691C20.5238 21.0878 20.9023 21.0065 21.2796 20.9243C20.5552 20.637 19.9554 20.1774 19.56 19.6064C19.2279 19.1185 19.0603 18.5679 19.0744 18.0104C19.2956 18.0532 19.5256 18.0572 19.7488 18.0221C19.9721 17.987 20.1836 17.9136 20.3693 17.8068C19.5225 17.3367 18.7443 16.7898 18.0498 16.1765C17.9049 16.0483 17.7673 15.92 17.6359 15.7937C18.887 16.3714 20.5348 17.2957 23.5823 18.2816C23.5298 18.6622 23.3871 19.031 23.1623 19.3675C21.6508 19.6984 19.7766 18.6292 19.7766 18.6292" fill="#49E484"/>
<path fill-rule="evenodd" clip-rule="evenodd" d="M14.8454 23.6433C14.754 24.4071 14.9919 25.1731 15.5183 25.8101C14.8503 25.066 13.7976 24.7438 13.4957 24.0017C13.1038 22.8727 14.5156 22.58 14.7127 20.9194C13.2518 21.1116 11.754 20.9689 10.3875 20.5072C10.3875 20.5072 13.1659 19.4869 13.6686 17.8048C13.6686 17.8048 10.5555 18.7604 7.31104 18.2817C12.0961 16.2979 13.34 15.2777 15.1144 15.1857H15.1167C15.2683 15.8268 15.295 16.4833 15.1959 17.1312C15.05 18.0585 14.654 18.9481 14.0361 19.7366C14.4075 19.8349 14.8005 19.867 15.1885 19.8306C15.5423 19.7966 15.8841 19.7054 16.1939 19.5623C16.1738 20.4322 15.9636 21.2922 15.5731 22.1022C15.241 22.7807 14.944 23.0646 14.8454 23.6433Z" fill="#1D753D"/>
<path fill-rule="evenodd" clip-rule="evenodd" d="M30.5641 22.678C28.2404 23.5606 26.0294 24.6275 23.9633 25.863C22.766 26.579 21.6209 27.3509 20.5337 28.1747C20.4618 28.2286 20.3913 28.2824 20.322 28.3363C20.2514 28.3901 20.1808 28.444 20.1126 28.4988C20.0178 28.5723 19.9252 28.6457 19.8327 28.7191C19.7403 28.7916 19.6501 28.865 19.5601 28.9384C19.4701 29.0119 19.3812 29.0843 19.2924 29.1578C19.206 29.2292 19.1208 29.3017 19.0344 29.3732C21.7382 26.3861 25.1669 23.8818 29.1086 22.0151C28.891 21.5738 28.6042 21.1572 28.2555 20.7755C29.1333 21.2554 29.8897 21.8676 30.4839 22.5791C30.5156 22.6173 30.5422 22.6505 30.5641 22.678M29.2523 17.1224L27.4449 19.8806L27.0081 19.909C27.4347 19.1063 27.7739 18.2748 28.0219 17.424C28.0219 17.424 27.8539 17.2663 26.4556 16.8541C26.9991 16.945 27.5478 17.0136 28.0997 17.0597C28.4696 17.0911 28.8554 17.1126 29.2523 17.1224" fill="#FF8142"/>
<path fill-rule="evenodd" clip-rule="evenodd" d="M13.8333 14.7792C12.7298 15.1823 11.6549 15.6354 10.6138 16.1364C10.0359 15.6595 9.53195 15.1268 9.11329 14.5502C8.39405 13.5075 8.51209 12.074 8.51209 12.074C8.77997 12.0312 9.05599 12.0349 9.32197 12.085C9.58795 12.1351 9.83786 12.2304 10.0552 12.3647C9.69014 12.5606 9.69014 12.7564 9.69014 12.7564C10.9511 14.0732 12.3123 13.1146 12.9002 13.7572C12.3054 13.9658 11.8293 14.3491 11.5669 14.8307C12.1658 14.4811 12.9092 14.3362 13.6379 14.4269C13.6809 14.5516 13.7468 14.6704 13.8333 14.7792" fill="#CC9666"/>
<path fill-rule="evenodd" clip-rule="evenodd" d="M20.5657 16.2334L22.3048 15.7164C21.9232 16.0353 21.5621 16.3699 21.2228 16.719C19.7467 16.1237 18.1515 15.1555 17.0654 14.7973C17.1256 14.6767 17.1757 14.553 17.2154 14.4269C17.9587 14.3354 18.7173 14.4732 19.3422 14.813C19.2304 14.5659 19.0517 14.3424 18.8193 14.159C18.5869 13.9756 18.3067 13.837 17.9996 13.7534C18.68 13.1145 20.2852 14.0384 21.1381 12.7816C21.1381 12.7816 21.1381 12.5857 20.773 12.3899C20.773 12.3899 21.8969 11.8569 22.9194 12.0829C22.9194 12.0829 23.0375 13.5163 22.3181 14.5591C21.8679 15.2013 21.2735 15.7692 20.5657 16.2334" fill="#ECB87F"/>
<path fill-rule="evenodd" clip-rule="evenodd" d="M22.3176 14.5591C21.8678 15.2004 21.2742 15.7677 20.5676 16.2314C21.1732 15.6609 21.6226 14.9921 21.8858 14.2695C22.1489 13.5468 22.2199 12.7869 22.0939 12.0403C22.3658 12.0088 22.6428 12.0227 22.908 12.0809C22.9117 12.0811 22.9153 12.0818 22.9188 12.0829C22.9188 12.0829 23.0368 13.5163 22.3176 14.5591ZM16.515 13.7354C16.5149 13.9862 16.4487 14.2341 16.321 14.4625C16.1883 14.3262 16.0964 14.1667 16.0529 13.9965C16.0094 13.8263 16.0154 13.6502 16.0703 13.4822C16.1219 13.3499 16.2005 13.2256 16.3029 13.1145C16.4795 13.2428 16.5059 13.4486 16.515 13.7354Z" fill="#FFD8AD"/>
<path fill-rule="evenodd" clip-rule="evenodd" d="M12.2836 12.781C12.2277 12.9065 12.1131 13.0089 11.9646 13.0659C11.8162 13.123 11.6461 13.13 11.4913 13.0855C11.4148 13.0643 11.3442 13.0309 11.2836 12.9873C11.223 12.9437 11.1737 12.8908 11.1385 12.8316C11.1033 12.7724 11.0829 12.7081 11.0785 12.6424C11.0742 12.5767 11.0859 12.511 11.113 12.4491L11.3185 12.5078V12.5147C11.3192 12.6029 11.3628 12.6873 11.44 12.7493C11.5171 12.8114 11.6214 12.846 11.7299 12.8456C11.7928 12.8456 11.8548 12.834 11.9114 12.8116C11.9679 12.7892 12.0174 12.7566 12.0561 12.7164L12.2836 12.781ZM19.3203 13.0855C19.1655 13.13 18.9954 13.1229 18.847 13.0659C18.6986 13.0089 18.5839 12.9064 18.528 12.781L18.7641 12.7144C18.8161 12.7697 18.888 12.8104 18.9699 12.8308C19.0517 12.8513 19.1393 12.8504 19.2205 12.8284C19.3018 12.8065 19.3725 12.7644 19.4229 12.7081C19.4733 12.6519 19.5008 12.5842 19.5016 12.5146C19.5018 12.5113 19.5014 12.508 19.5004 12.5048L19.6988 12.449C19.7259 12.511 19.7375 12.5767 19.7331 12.6424C19.7287 12.7081 19.7084 12.7724 19.6731 12.8316C19.6379 12.8908 19.5886 12.9437 19.528 12.9873C19.4675 13.0309 19.3969 13.0642 19.3203 13.0855Z" fill="white"/>
<path d="M45.5702 21.8214C46.2748 21.8261 46.975 21.7298 47.6387 21.5372C48.2547 21.3598 48.8222 21.0862 49.3091 20.7318C49.7824 20.3837 50.1654 19.9623 50.4357 19.4922C50.7202 18.99 50.8629 18.4423 50.8533 17.8894C50.8709 17.4197 50.782 16.9513 50.591 16.5077C50.4397 16.1769 50.2196 15.8698 49.9404 15.5997C49.6973 15.3686 49.4124 15.169 49.0955 15.0075C48.7912 14.8549 48.5095 14.7048 48.2505 14.5575C48.0094 14.4231 47.7907 14.2639 47.5999 14.0837C47.4211 13.906 47.3279 13.6815 47.3377 13.4521C47.3371 13.2957 47.391 13.1424 47.493 13.0099C47.5943 12.8753 47.7223 12.7552 47.8718 12.6546C48.0098 12.5606 48.1595 12.4785 48.3185 12.4099C48.434 12.3547 48.5637 12.3222 48.6973 12.3151C48.8008 12.3131 48.9034 12.3315 48.9964 12.3686C49.0894 12.4057 49.17 12.4605 49.2314 12.5283C49.3883 12.7336 49.4598 12.9744 49.4354 13.2152C49.4353 13.3 49.4255 13.3846 49.4062 13.4679C49.3868 13.5521 49.3641 13.6363 49.3383 13.7205L52.1546 13.0573C52.1805 12.8889 52.2097 12.731 52.242 12.5836C52.2742 12.4376 52.2905 12.2897 52.2906 12.1414C52.3026 11.8432 52.233 11.5465 52.0866 11.2729C51.9595 11.0507 51.7739 10.8539 51.5428 10.6965C51.3067 10.54 51.0317 10.4268 50.7367 10.3649C50.4136 10.2952 50.0805 10.2607 49.7462 10.2623C49.057 10.2702 48.3743 10.3716 47.7261 10.5623C47.0256 10.7575 46.3621 11.0312 45.7547 11.3756C45.1664 11.7065 44.6564 12.1211 44.2494 12.5994C43.8582 13.0469 43.6478 13.5821 43.6473 14.1311C43.6425 14.4541 43.7503 14.7717 43.958 15.047C44.1651 15.3206 44.4166 15.5703 44.7058 15.7892C45.0081 16.0175 45.3293 16.2285 45.6673 16.4209C46.0169 16.6209 46.3406 16.8183 46.6384 17.013C46.9179 17.1926 47.169 17.3994 47.3862 17.6289C47.5803 17.8292 47.6863 18.0766 47.6873 18.3316C47.691 18.4677 47.6472 18.6018 47.561 18.7185C47.4723 18.833 47.3568 18.9322 47.2211 19.0106C47.0798 19.0944 46.9222 19.1584 46.755 19.2001C46.5979 19.2408 46.4342 19.2621 46.2694 19.2633C46.0596 19.2587 45.8525 19.2239 45.6576 19.1606C45.4226 19.089 45.1952 19.0019 44.9778 18.9001C44.7557 18.7975 44.5501 18.6729 44.3659 18.529C44.2044 18.4073 44.0668 18.2662 43.9581 18.1105L42.5208 20.4002C42.923 20.8402 43.432 21.2084 44.0163 21.4819C44.4912 21.699 45.0254 21.8157 45.5702 21.8214ZM51.6431 21.8214C52.0279 21.7193 52.4205 21.6376 52.8182 21.5767C53.252 21.5082 53.6955 21.453 54.1487 21.4109C54.6019 21.3688 55.0519 21.3372 55.4986 21.3161C55.9454 21.2951 56.3695 21.2845 56.7709 21.2845C56.8745 21.2845 56.9748 21.2872 57.0719 21.2924L57.22 21.2983L57.373 21.3003C57.36 21.2582 57.3439 21.1766 57.3244 21.0556C57.305 20.9345 57.2791 20.795 57.2467 20.6371C57.2144 20.4792 57.1852 20.3028 57.1593 20.1081C57.1334 19.9133 57.114 19.7159 57.1011 19.5159C56.8162 19.5159 56.4892 19.5185 56.1202 19.5238C55.7511 19.5291 55.4048 19.5422 55.081 19.5633C55.1458 19.1948 55.23 18.7737 55.3335 18.3C55.4371 17.8262 55.5537 17.3367 55.6832 16.8314C55.8127 16.3261 55.9486 15.8076 56.091 15.276C56.2335 14.7443 56.3759 14.2311 56.5183 13.7363C56.8421 12.5783 57.1787 11.3887 57.5284 10.1675L54.1293 10.5307C53.7667 11.9624 53.4236 13.3678 53.0999 14.7469C52.9574 15.326 52.8182 15.9313 52.6823 16.5629C52.5463 17.1946 52.4103 17.821 52.2744 18.4421C52.1384 19.0632 52.0187 19.6633 51.9151 20.2423C51.8115 20.8213 51.7208 21.3477 51.6431 21.8214ZM61.6008 21.853C62.1487 21.8457 62.6896 21.7519 63.1935 21.5767C63.7884 21.3739 64.3445 21.1027 64.8445 20.7713C65.4209 20.3921 65.9451 19.9632 66.408 19.4922C66.9256 18.9674 67.3657 18.395 67.7191 17.7868C68.1099 17.1144 68.4127 16.4104 68.6223 15.6865C68.854 14.8871 68.9681 14.0681 68.9622 13.2468C68.9619 12.8547 68.9163 12.4634 68.8262 12.0782C68.7451 11.7104 68.5909 11.3557 68.3698 11.0281C68.1563 10.7177 67.8487 10.4568 67.4763 10.2701C67.0377 10.0634 66.5359 9.96209 66.0293 9.978C65.3519 9.9788 64.6851 10.1143 64.0869 10.3728C63.4394 10.6517 62.8496 11.0114 62.3389 11.4387C61.7744 11.9072 61.2731 12.4234 60.8433 12.9783C60.3899 13.5576 60.0061 14.1711 59.6973 14.8101C59.3907 15.4413 59.1439 16.0906 58.9592 16.7524C58.7839 17.3635 58.6927 17.9884 58.6873 18.6158C58.6753 19.1089 58.7505 19.6008 58.9107 20.0765C59.032 20.4376 59.2399 20.7757 59.5225 21.0713C59.7676 21.3204 60.08 21.5204 60.4354 21.6556C60.8014 21.79 61.1992 21.8574 61.6008 21.853H61.6008ZM62.6496 19.2475C62.4949 19.2476 62.3434 19.212 62.2126 19.1448C62.0822 19.0804 61.9671 18.9975 61.8727 18.9001C61.7788 18.8002 61.7065 18.6881 61.659 18.5684C61.6092 18.4516 61.583 18.3289 61.5814 18.2052C61.5865 17.9037 61.6189 17.6028 61.6785 17.3051C61.7476 16.943 61.8548 16.5864 61.999 16.2392C62.1495 15.8727 62.3279 15.514 62.5331 15.1654C62.729 14.8273 62.9735 14.5093 63.2615 14.218C63.5238 13.9504 63.8428 13.7231 64.2035 13.5468C64.5499 13.3791 64.9463 13.2917 65.3495 13.2942C65.5295 13.2866 65.7064 13.3345 65.8448 13.4284C65.9667 13.5166 66.06 13.6277 66.1167 13.7521C66.1767 13.8844 66.2158 14.0224 66.2332 14.1627C66.2519 14.299 66.2616 14.4361 66.2624 14.5733C66.2537 15.0689 66.1722 15.5619 66.0196 16.0418C65.8629 16.5672 65.6315 17.076 65.33 17.5578C65.0507 18.0119 64.6685 18.4191 64.2035 18.7579C63.7802 19.0749 63.2251 19.2498 62.6496 19.2475ZM70.2182 21.8056L73.7144 21.3635C73.8957 20.2476 74.0899 19.1685 74.2971 18.1263C74.3877 17.6841 74.4784 17.2209 74.569 16.7366C74.6596 16.2524 74.7535 15.776 74.8506 15.3075C74.9478 14.8391 75.0481 14.3864 75.1517 13.9495C75.2553 13.5126 75.3524 13.1152 75.4431 12.7573C75.7279 12.7151 76.016 12.6809 76.3074 12.6546C76.5993 12.6282 76.8883 12.5833 77.1717 12.5204C77.2235 12.3414 77.2785 12.1256 77.3368 11.8729C77.3951 11.6203 77.4566 11.3729 77.5213 11.1308L77.735 10.278C77.23 10.3307 76.7153 10.3754 76.1908 10.4123C75.6664 10.4491 75.0967 10.4807 74.4816 10.507C73.8665 10.5333 73.2288 10.5465 72.5684 10.5465C72.2317 10.5465 71.8951 10.5412 71.5584 10.5307C71.2217 10.5202 70.8851 10.5044 70.5484 10.4833C70.5354 10.757 70.5225 11.015 70.5096 11.2571C70.4966 11.4782 70.4901 11.6992 70.4901 11.9203C70.4901 12.1414 70.4837 12.3361 70.4707 12.5046C70.763 12.5777 71.0684 12.6097 71.3739 12.5993C71.6755 12.5887 71.9777 12.5993 72.2771 12.6309C72.2123 13.0204 72.1379 13.4494 72.0537 13.9179C71.9695 14.3864 71.8724 14.8706 71.7624 15.3707C71.6523 15.8708 71.539 16.3787 71.4225 16.8946C71.3059 17.4104 71.1894 17.9052 71.0728 18.3789C70.8009 19.5054 70.516 20.6476 70.2182 21.8056L70.2182 21.8056Z" fill="#49E484"/>
<path d="M78.8421 21.8214L81.8332 21.3161L82.2605 19.6106C82.3641 19.1369 82.4774 18.6369 82.6004 18.1105C82.7234 17.5841 82.8303 17.1209 82.9209 16.7208L84.805 16.5787C84.7273 16.9682 84.6205 17.4367 84.4845 17.9841C84.3485 18.5316 84.2158 19.0579 84.0863 19.5633C83.9568 20.1633 83.8079 20.7792 83.6396 21.4108L86.6696 21.1266C86.9156 19.7264 87.1811 18.3579 87.466 17.0209C87.5825 16.4629 87.712 15.8734 87.8544 15.2523C87.9969 14.6311 88.1458 14.0179 88.3012 13.4126C88.4565 12.8072 88.6152 12.223 88.777 11.6597C88.9389 11.0965 89.1104 10.578 89.2917 10.1043L88.9712 10.128C88.7576 10.1438 88.4954 10.1622 88.1846 10.1833C87.8738 10.2043 87.5372 10.228 87.1746 10.2543C86.812 10.2806 86.4818 10.3149 86.184 10.357C85.9509 11.1044 85.7632 11.8282 85.6207 12.5283C85.4783 13.2283 85.3164 13.9521 85.1352 14.6996L83.2122 14.8733C83.3935 14.1153 83.591 13.3363 83.8047 12.5362C84.0183 11.7361 84.2352 10.9676 84.4553 10.2306L81.3088 10.4043C81.2181 10.8886 81.1146 11.4229 80.998 12.0072C80.8815 12.5914 80.7585 13.1941 80.629 13.8153C80.4995 14.4364 80.3635 15.0654 80.2211 15.7023C80.0787 16.3392 79.9492 16.9524 79.8326 17.542C79.5089 18.9421 79.1787 20.3686 78.842 21.8214L78.8421 21.8214ZM91.2664 22.0741C91.7803 22.073 92.291 22.0091 92.7814 21.8846C93.2968 21.7539 93.78 21.5508 94.2091 21.2845C94.6714 20.9969 95.0662 20.6438 95.3744 20.2423C95.7311 19.7691 95.9902 19.2517 96.1417 18.7105C96.2841 18.2052 96.4298 17.6499 96.5787 17.0446C96.7276 16.4392 96.8798 15.8234 97.0351 15.197C97.1905 14.5706 97.3297 13.9679 97.4527 13.3889C97.5757 12.8099 97.689 12.294 97.7926 11.8414C97.8962 11.3887 97.9804 11.0255 98.0451 10.7518L98.1422 10.3412L95.1899 10.4991C94.9827 11.4887 94.7691 12.4467 94.5489 13.3731C94.4583 13.7731 94.3644 14.1837 94.2673 14.6048C94.1702 15.0259 94.0731 15.4391 93.976 15.8444C93.8788 16.2497 93.7817 16.6393 93.6846 17.013C93.5875 17.3867 93.5001 17.7262 93.4224 18.0315C93.3836 18.1473 93.3415 18.3079 93.2962 18.5132C93.2499 18.7211 93.1783 18.9247 93.0825 19.1211C92.9959 19.3062 92.8747 19.4793 92.7232 19.6343C92.6593 19.7019 92.5768 19.7564 92.4824 19.7934C92.388 19.8304 92.2842 19.849 92.1793 19.8475C92.1029 19.8476 92.0276 19.8325 91.9599 19.8036C91.8922 19.7747 91.8342 19.7329 91.7909 19.6817C91.683 19.5602 91.6283 19.4129 91.6355 19.2632C91.6386 19.0273 91.6678 18.7921 91.7229 18.5605C91.7811 18.3026 91.8329 18.0894 91.8783 17.921C91.9236 17.7525 91.9819 17.5341 92.0531 17.2656C92.1243 16.9972 92.2085 16.6787 92.3056 16.3103C92.4027 15.9418 92.5063 15.5365 92.6164 15.0943C92.7264 14.6522 92.8397 14.21 92.9563 13.7679C93.2152 12.7362 93.5131 11.5834 93.8497 10.3096C93.4613 10.3412 93.0663 10.3728 92.6649 10.4043C92.3412 10.4254 91.9916 10.4517 91.6161 10.4833C91.2405 10.5149 90.9168 10.5412 90.6449 10.5623C90.619 10.6465 90.5607 10.8702 90.4701 11.2334C90.3794 11.5966 90.2726 12.0519 90.1496 12.5993C90.0266 13.1468 89.8874 13.7547 89.732 14.4232C89.5766 15.0917 89.4342 15.7576 89.3047 16.4208C89.1752 17.084 89.0522 17.721 88.9356 18.3315C88.8191 18.9421 88.7349 19.4633 88.6832 19.8949C88.6703 19.9362 88.6638 19.9786 88.6637 20.0212V20.1475C88.655 20.4439 88.7385 20.7372 88.9065 21.0003C89.0579 21.2322 89.2661 21.4364 89.5183 21.6003C89.7675 21.7596 90.0506 21.88 90.3535 21.9556C90.6487 22.0326 90.9565 22.0725 91.2664 22.0741ZM97.1063 21.8688L99.9421 21.3319C100.136 20.5634 100.318 19.8265 100.486 19.1211C100.564 18.8264 100.635 18.5184 100.7 18.1973C100.764 17.8762 100.829 17.5683 100.894 17.2735C100.959 16.9788 101.023 16.6998 101.088 16.4366C101.153 16.1734 101.205 15.9418 101.243 15.7418C101.295 15.9418 101.347 16.1787 101.399 16.4524C101.451 16.7261 101.502 17.0209 101.554 17.3367C101.606 17.6525 101.655 17.9815 101.7 18.3237C101.745 18.6658 101.787 19.0001 101.826 19.3264C101.917 20.0844 102.001 20.8845 102.079 21.7267C102.329 21.655 102.586 21.597 102.846 21.553L103.875 21.3635C104.218 21.3003 104.523 21.245 104.788 21.1977C104.939 21.1672 105.091 21.1435 105.245 21.1266C105.296 20.7897 105.368 20.3713 105.458 19.8712C105.549 19.3711 105.659 18.829 105.789 18.2447C105.918 17.6604 106.057 17.0498 106.206 16.4129C106.355 15.776 106.507 15.147 106.663 14.5259C106.999 13.0836 107.388 11.5571 107.828 9.94641L105.458 10.1833C105.264 10.9097 105.076 11.615 104.895 12.2993C104.817 12.6046 104.743 12.9125 104.672 13.2231C104.6 13.5337 104.526 13.8416 104.448 14.1469C104.371 14.4522 104.299 14.7443 104.235 15.0233C104.17 15.3023 104.112 15.547 104.06 15.7576C103.943 15.3154 103.811 14.7785 103.662 14.1469C103.513 13.5152 103.367 12.8994 103.225 12.2993C103.082 11.615 102.92 10.9044 102.739 10.1675C102.441 10.178 102.163 10.1885 101.904 10.1991C101.645 10.2096 101.386 10.2175 101.127 10.2228C100.868 10.228 100.648 10.2307 100.467 10.2307H100.059C99.9421 10.2307 99.7997 10.2254 99.6314 10.2149C99.5796 10.6886 99.5019 11.2176 99.3983 11.8019C99.2947 12.3862 99.1782 12.9968 99.0487 13.6337C98.9192 14.2706 98.78 14.9154 98.6311 15.5681C98.4822 16.2208 98.343 16.8524 98.2135 17.463C97.8639 18.8843 97.4948 20.3528 97.1063 21.8688V21.8688ZM108.346 21.8056L111.842 21.3635C112.023 20.2476 112.218 19.1685 112.425 18.1263C112.515 17.6841 112.606 17.2209 112.697 16.7366C112.787 16.2524 112.881 15.776 112.978 15.3075C113.075 14.8391 113.176 14.3864 113.279 13.9495C113.383 13.5126 113.48 13.1152 113.571 12.7573C113.856 12.7151 114.144 12.6809 114.435 12.6546C114.727 12.6282 115.016 12.5833 115.299 12.5204C115.351 12.3414 115.406 12.1256 115.465 11.8729C115.523 11.6203 115.584 11.3729 115.649 11.1308L115.863 10.278C115.358 10.3307 114.843 10.3754 114.319 10.4123C113.794 10.4491 113.224 10.4807 112.609 10.507C111.994 10.5333 111.357 10.5465 110.696 10.5465C110.359 10.5465 110.023 10.5412 109.686 10.5307C109.349 10.5202 109.013 10.5044 108.676 10.4833C108.663 10.757 108.65 11.015 108.637 11.2571C108.624 11.4781 108.618 11.6992 108.618 11.9203C108.618 12.1414 108.611 12.3361 108.598 12.5046C108.891 12.5777 109.196 12.6097 109.502 12.5993C109.803 12.5887 110.105 12.5993 110.405 12.6309C110.34 13.0204 110.266 13.4494 110.181 13.9179C110.097 14.3864 110 14.8706 109.89 15.3707C109.78 15.8708 109.667 16.3787 109.55 16.8946C109.434 17.4104 109.317 17.9052 109.201 18.3789C108.929 19.5054 108.644 20.6476 108.346 21.8056ZM114.594 21.8056L120.867 21.0161L121.062 19.2159L118.226 19.5791L118.886 16.6735C119.288 16.6629 119.657 16.6524 119.993 16.6419C120.291 16.6314 120.586 16.6235 120.877 16.6182C121.168 16.6129 121.379 16.605 121.508 16.5945C121.573 16.2998 121.628 16.0102 121.673 15.726C121.719 15.4418 121.767 15.1522 121.819 14.8575C121.677 14.868 121.457 14.8733 121.159 14.8733C120.861 14.8733 120.57 14.8785 120.285 14.8891C119.935 14.8996 119.56 14.9154 119.158 14.9364L119.838 12.1098H120.566C120.845 12.1098 121.12 12.1072 121.392 12.1019C121.664 12.0966 121.919 12.0914 122.159 12.0861C122.399 12.0809 122.583 12.073 122.713 12.0624C122.751 11.894 122.8 11.7019 122.858 11.4861C122.917 11.2702 122.978 11.0623 123.043 10.8623C123.108 10.6202 123.185 10.3833 123.276 10.1517L117.138 10.5781L114.594 21.8056ZM121.949 21.8056L125.095 21.1424C125.212 20.6371 125.328 20.137 125.445 19.6422C125.535 19.2211 125.636 18.7842 125.746 18.3316C125.856 17.8789 125.95 17.4841 126.028 17.1472L126.28 17.0841C126.301 17.2356 126.333 17.3859 126.377 17.5341C126.429 17.7183 126.494 17.9263 126.571 18.1579C126.649 18.3895 126.733 18.6342 126.824 18.8922C126.915 19.1501 127.005 19.4001 127.096 19.6422C127.303 20.2318 127.536 20.8634 127.795 21.5372L130.806 20.6845C130.534 20.1581 130.268 19.6317 130.009 19.1053C129.776 18.6527 129.527 18.1763 129.261 17.6762C128.996 17.1762 128.747 16.7156 128.514 16.2945C128.978 16.0989 129.406 15.8517 129.786 15.5602C130.18 15.2612 130.532 14.9275 130.835 14.5653C131.136 14.2073 131.38 13.82 131.563 13.4126C131.743 13.0156 131.835 12.5959 131.835 12.173C131.839 11.912 131.799 11.6518 131.719 11.3992C131.645 11.1743 131.509 10.9662 131.32 10.7912C131.108 10.6048 130.841 10.4661 130.543 10.3886C130.138 10.2848 129.715 10.2368 129.291 10.2465C128.44 10.2469 127.59 10.2918 126.746 10.3807C125.936 10.4623 125.137 10.6023 124.357 10.7991C124.292 11.2624 124.205 11.7756 124.095 12.3388C123.985 12.902 123.868 13.4863 123.745 14.0916C123.622 14.6969 123.49 15.3075 123.347 15.9234C123.205 16.5393 123.075 17.1314 122.959 17.6999C122.635 19.0369 122.298 20.4055 121.949 21.8056V21.8056ZM126.513 14.9522L127.135 12.4414C127.251 12.4414 127.384 12.4388 127.533 12.4335C127.682 12.4283 127.827 12.4256 127.97 12.4256C128.177 12.4256 128.378 12.4309 128.572 12.4414C128.753 12.4501 128.932 12.4739 129.106 12.5125C129.246 12.54 129.376 12.5941 129.485 12.6704C129.531 12.7059 129.566 12.7489 129.59 12.7966C129.613 12.8442 129.624 12.8954 129.621 12.9467C129.591 13.1686 129.468 13.3751 129.271 13.531C129.02 13.7663 128.74 13.9805 128.436 14.1706C128.118 14.373 127.776 14.5502 127.416 14.6996C127.136 14.8265 126.83 14.912 126.513 14.9522V14.9522Z" fill="white"/>
</svg>
