<svg width="104" height="53" viewBox="0 0 104 53" fill="none" xmlns="http://www.w3.org/2000/svg">
<g clip-path="url(#clip0_314_92)">
<path d="M18.3754 52.0702C17.788 52.0702 17.3011 52.0218 16.9148 51.9251C16.3353 51.772 15.8123 51.5021 15.3455 51.1152C14.8788 50.7204 14.5126 50.2449 14.247 49.6889C13.9814 49.1248 13.8486 48.5285 13.8486 47.8999C13.8486 47.2633 13.9814 46.667 14.247 46.1109C14.5126 45.5468 14.8788 45.0714 15.3455 44.6846C15.8123 44.2897 16.3394 44.0198 16.9268 43.8747C17.3051 43.778 17.788 43.7297 18.3754 43.7297H18.4961V45.7241H18.3754C17.7236 45.7241 17.2045 45.8571 16.8182 46.123C16.5446 46.3083 16.3233 46.5622 16.1543 46.8846C15.9853 47.2069 15.9008 47.5454 15.9008 47.8999C15.9008 48.2545 15.9853 48.5929 16.1543 48.9153C16.3233 49.2377 16.5446 49.4915 16.8182 49.6768C17.2045 49.9427 17.7236 50.0757 18.3754 50.0757H18.4961V52.0702H18.3754ZM27.2398 49.4834C27.2398 48.194 27.4893 47.1223 27.9882 46.2681C28.4871 45.4058 29.1793 44.7692 30.0645 44.3582C30.9497 43.9391 31.9798 43.7297 33.1548 43.7297V52.0702H31.1026V50.8614H29.2919V52.0702H27.2398V49.4834ZM31.1026 48.8669V46.1351C30.0403 46.5542 29.4448 47.4648 29.316 48.8669H31.1026ZM41.95 50.0757H44.4005C44.6419 50.0757 44.823 50.0274 44.9437 49.9307C45.0725 49.8259 45.1369 49.697 45.1369 49.5438C45.1369 49.3907 45.0806 49.2618 44.9679 49.157C44.8633 49.0443 44.7305 48.9596 44.5695 48.9032C43.9338 48.6937 43.4872 48.5325 43.2296 48.4197C42.9802 48.3069 42.7629 48.1538 42.5777 47.9604C42.1431 47.5171 41.9259 46.941 41.9259 46.2318C41.9259 45.6033 42.0909 45.0714 42.4208 44.6362C42.7588 44.193 43.2095 43.915 43.7728 43.8022C43.9338 43.7699 44.1189 43.7498 44.3281 43.7417C44.5454 43.7337 44.7828 43.7297 45.0403 43.7297H46.1629V45.7241H44.6178C44.4086 45.7241 44.2477 45.7725 44.1349 45.8692C44.0304 45.9659 43.978 46.0908 43.978 46.2439C43.978 46.5663 44.1591 46.7798 44.5212 46.8846C45.0524 47.0377 45.4548 47.1707 45.7284 47.2834C46.0101 47.3962 46.2555 47.5413 46.4647 47.7186C46.7061 47.9281 46.8872 48.19 47.0079 48.5043C47.1286 48.8105 47.189 49.141 47.189 49.4955C47.189 49.9951 47.0764 50.4423 46.851 50.8372C46.6257 51.224 46.3159 51.5262 45.9215 51.7438C45.5352 51.9614 45.1087 52.0702 44.6419 52.0702H41.95V50.0757ZM55.882 43.7297H57.9342V52.0702H55.882V43.7297ZM66.7486 43.7297C67.5614 43.7297 68.2978 43.8545 68.9577 44.1044C69.6176 44.3461 70.189 44.7007 70.6718 45.1681V43.7297H72.724V52.0702H70.6718V49.4834C70.6718 47.7509 70.0481 46.6791 68.8008 46.2681V52.0702H66.7486V43.7297ZM85.7779 52.2515C84.9812 52.2515 84.2489 52.0581 83.5809 51.6713C82.921 51.2845 82.3979 50.7566 82.0117 50.0878C81.6254 49.419 81.4322 48.6856 81.4322 47.8878C81.4322 47.0981 81.6254 46.3729 82.0117 45.712C82.3979 45.0432 82.921 44.5154 83.5809 44.1286C84.2489 43.7417 84.9812 43.5483 85.7779 43.5483C86.5747 43.5483 87.3069 43.7417 87.9749 44.1286C88.6429 44.5154 89.17 45.0432 89.5563 45.712C89.9506 46.3729 90.1478 47.0981 90.1478 47.8878C90.1478 48.6856 89.9506 49.419 89.5563 50.0878C89.17 50.7566 88.6429 51.2845 87.9749 51.6713C87.3069 52.0581 86.5747 52.2515 85.7779 52.2515ZM85.79 50.2449C86.2004 50.2449 86.5826 50.1401 86.9368 49.9307C87.2909 49.7212 87.5725 49.4391 87.7818 49.0845C87.991 48.7219 88.0956 48.3311 88.0956 47.912C88.0956 47.4929 87.991 47.1061 87.7818 46.7516C87.5725 46.389 87.2909 46.0989 86.9368 45.8813C86.5826 45.6637 86.2004 45.5549 85.79 45.5549C85.3715 45.5549 84.9852 45.6637 84.6311 45.8813C84.277 46.0908 83.9954 46.3769 83.7861 46.7395C83.5849 47.1021 83.4844 47.4929 83.4844 47.912C83.4844 48.3311 83.5849 48.7219 83.7861 49.0845C83.9954 49.4391 84.277 49.7212 84.6311 49.9307C84.9852 50.1401 85.3715 50.2449 85.79 50.2449Z" fill="white"/>
<path d="M104.001 1.50366H82.2248V9.39881H90.8601L79.5967 31.9563H104.001V24.0611H93.1131L104.001 1.50366Z" fill="white"/>
<path d="M78.4693 1.50366H56.6932V9.39881H65.3285L54.0649 31.9563H78.4693V24.0611H67.5812L78.4693 1.50366Z" fill="white"/>
<path d="M20.2743 1.50366H11.639V22.9332C11.639 23.6852 11.1885 25.189 9.38628 25.189C7.58412 25.189 7.13357 23.6852 7.13357 22.9332H0C0.500602 26.1915 3.0787 32.7082 9.38628 32.7082C17.2708 32.7082 20.2743 26.6928 20.2743 22.9332V1.50366Z" fill="white"/>
<path d="M39.4226 0C29.6751 0 21.7764 7.90938 21.7764 17.67C21.7764 27.4307 29.6751 35.34 39.4226 35.34C49.1701 35.34 57.0688 27.4307 57.0688 17.67C57.0688 7.90938 49.1701 0 39.4226 0ZM40.7799 1.42855C42.7604 1.59301 44.6363 2.11905 46.352 2.93051L44.3133 6.46723C43.2096 5.98334 42.022 5.65575 40.7786 5.51711V1.42855H40.7799ZM38.0652 1.42855V5.51711C36.8217 5.65711 35.634 5.98334 34.5305 6.46723L32.4916 2.93051C34.2087 2.11905 36.0847 1.59301 38.0652 1.42855ZM30.138 4.28568L32.1862 7.83599C31.2008 8.56455 30.3306 9.43716 29.6031 10.4226L26.0576 8.37151C27.1652 6.77984 28.547 5.39617 30.138 4.28568ZM24.7029 10.7311L28.2349 12.7727C27.7516 13.8777 27.4245 15.0671 27.286 16.3122H23.2029C23.3672 14.3277 23.8926 12.4492 24.7029 10.7311ZM23.2029 19.0292H27.286C27.4259 20.2743 27.7516 21.4636 28.2349 22.5687L24.7029 24.6102C23.8926 22.8908 23.3672 21.0124 23.2029 19.0292ZM30.138 31.0544C28.547 29.9452 27.1652 28.5602 26.0562 26.9671L29.6017 24.916C30.3293 25.9029 31.2008 26.7742 32.1849 27.5027L30.138 31.0544ZM38.0652 33.9115C36.0847 33.7471 34.2088 33.221 32.493 32.4095L34.5319 28.8728C35.6354 29.3567 36.8231 29.6843 38.0665 29.8229V33.9115H38.0652ZM28.5634 17.67C28.5634 11.6731 33.4336 6.79616 39.4226 6.79616C45.4114 6.79616 50.2817 11.6731 50.2817 17.67C50.2817 23.6669 45.4114 28.5438 39.4226 28.5438C33.4336 28.5438 28.5634 23.6669 28.5634 17.67ZM40.7799 33.9115V29.8229C42.0233 29.683 43.211 29.3567 44.3146 28.8728L46.3534 32.4095C44.6363 33.221 42.7604 33.7471 40.7799 33.9115ZM48.7072 31.0544L46.6588 27.504C47.6443 26.7755 48.5144 25.9029 49.242 24.9174L52.7875 26.9685C51.6799 28.5602 50.298 29.9439 48.7072 31.0544ZM54.1422 24.6089L50.6103 22.5673C51.0935 21.4623 51.4206 20.273 51.5591 19.0279H55.6421C55.4779 21.0124 54.9525 22.8909 54.1422 24.6089ZM55.6421 16.3108H51.5591C51.4192 15.0658 51.0935 13.8764 50.6103 12.7713L54.1422 10.7298C54.9525 12.4492 55.4779 14.3277 55.6421 16.3108ZM49.242 10.424C48.5144 9.43716 47.6429 8.56587 46.6588 7.83732L48.7072 4.28701C50.298 5.39614 51.6799 6.78123 52.7889 8.37425L49.242 10.424Z" fill="url(#paint0_linear_314_92)"/>
<path d="M41.6282 15.1717L39.4225 10.6985L37.2167 15.1717L32.2866 15.8893L35.8539 19.3731L35.0123 24.2908L39.4225 21.9692L43.8327 24.2908L42.9911 19.3731L46.5584 15.8893L41.6282 15.1717ZM42.03 21.8061L39.4225 20.4333L36.8149 21.8061L37.3118 18.8987L35.2023 16.8381L38.1167 16.4126L39.4225 13.769L40.727 16.414L43.6413 16.8395L41.5319 18.9001L42.03 21.8061Z" fill="url(#paint1_linear_314_92)"/>
</g>
<defs>
<linearGradient id="paint0_linear_314_92" x1="39.4226" y1="0" x2="39.4226" y2="35.34" gradientUnits="userSpaceOnUse">
<stop stop-color="#FF4E5B"/>
<stop offset="1" stop-color="#CC1833"/>
</linearGradient>
<linearGradient id="paint1_linear_314_92" x1="39.4225" y1="10.6985" x2="39.4225" y2="24.2908" gradientUnits="userSpaceOnUse">
<stop stop-color="#FF4E5B"/>
<stop offset="1" stop-color="#CC1833"/>
</linearGradient>
<clipPath id="clip0_314_92">
<rect width="104" height="53" fill="white"/>
</clipPath>
</defs>
</svg>
