<svg width="186" height="38" viewBox="0 0 186 38" fill="none" xmlns="http://www.w3.org/2000/svg">
<path d="M7.06532 37.3251C6.92716 37.3251 3.91599 37.2179 3.83964 37.2179C3.52769 37.2179 1.8116 37.3186 1.67998 37.3186C1.43202 37.3186 1.24151 37.2816 1.08226 37.202C0.699047 37.0114 0.70341 36.734 0.723043 36.6231C0.793577 36.2254 1.26041 36.1392 1.69307 36.0899C2.23771 36.0233 2.35115 35.7791 2.46095 34.9721C2.55185 34.2462 2.56566 33.4899 2.57221 32.777C2.58675 31.1246 2.58602 29.4714 2.58529 27.8189C2.58529 27.8189 2.58093 20.431 2.58093 20.3325C2.58166 19.7928 2.58166 19.1806 2.34097 18.7909C2.133 18.4548 1.33095 18.4548 0.987728 18.4548C0.598699 18.4548 0.400185 18.1947 0.379824 17.952C0.353647 17.6376 0.601608 17.3463 0.944826 17.2884C1.08008 17.2659 3.65713 17.3463 4.05997 17.3463C4.05997 17.3463 5.08817 17.3232 5.54846 17.3043C6.06765 17.2833 6.60357 17.2609 7.13512 17.2609C7.80338 17.2609 8.36038 17.2949 8.88757 17.3681C10.7047 17.6209 12.0194 18.3033 12.7939 19.3973C13.7872 20.7998 13.9857 22.5776 13.3538 24.4024C12.823 25.9361 11.6806 27.2184 10.2197 27.9196C9.5013 28.2645 8.71524 28.4832 7.88264 28.568C7.4987 28.6079 7.1264 28.6108 6.74755 28.6108C6.60357 28.6108 6.33379 28.5984 6.13601 28.513C5.91277 28.4173 5.77897 28.1978 5.7957 27.9537C5.81388 27.6958 5.99712 27.469 6.24217 27.4024C6.44578 27.3466 7.21002 27.3401 7.27037 27.335C7.63177 27.3068 7.98372 27.2343 8.31603 27.1213C9.0221 26.8801 9.63073 26.4635 10.0757 25.9165C10.9163 24.8828 11.1236 23.3875 10.6444 21.8155C10.2074 20.3811 9.10136 19.2879 7.7583 18.9626C7.42453 18.8829 6.09529 18.8604 5.82115 18.8959C5.58119 18.9271 5.50774 19.0068 5.50774 19.1415V28.2804C5.50774 28.7426 5.50556 29.2055 5.50338 29.6684C5.49684 31.0166 5.55064 33.9651 5.55064 33.9651C5.57028 34.5157 5.59064 35.0844 5.74189 35.5719C5.87205 35.9921 6.21745 36.0544 6.97515 36.0957C6.97515 36.0957 7.76193 36.1044 7.93427 36.4282C7.97863 36.5116 8.06225 36.7325 7.88482 36.9977C7.66522 37.3251 7.21366 37.3251 7.06532 37.3251Z" fill="#F9B242"/>
<path d="M24.9575 37.3591C24.0827 37.3591 21.6293 37.2685 21.2745 37.2577C20.4317 37.2316 19.7896 37.22 19.1919 37.22C18.9337 37.22 18.6603 37.2446 18.3709 37.2707C18.0684 37.2982 17.755 37.3265 17.4438 37.3265C17.214 37.3265 17.0104 37.3113 16.8206 37.2794C16.4912 37.2243 16.2534 36.9331 16.2796 36.6158C16.3043 36.3188 16.5457 36.1116 16.8664 36.1116C17.3653 36.1116 17.5158 36.0131 17.5507 35.9834C17.7623 35.7979 17.7885 34.9822 17.8001 34.633C17.803 34.5366 17.8525 23.4997 17.8525 23.4997C17.8525 23.3903 17.8779 21.9356 17.6481 21.514C17.6009 21.4271 17.4031 21.3235 16.7334 21.3235L16.5356 21.3242C16.2149 21.3242 15.9735 21.117 15.9488 20.82C15.9226 20.5027 16.1596 20.2115 16.489 20.1564C16.6396 20.1318 17.3565 20.131 17.5383 20.1419C17.6779 20.1506 18.9119 20.1861 19.1533 20.1861C19.2944 20.1861 20.8156 20.0977 21.1574 20.0977C21.4621 20.0977 21.7246 20.1166 21.9602 20.1557C22.2881 20.2107 22.5252 20.4954 22.499 20.8041C22.4794 21.0424 22.2874 21.2981 21.9136 21.2981C21.638 21.2981 21.2599 21.2981 21.001 21.4184C20.7298 21.5437 20.7327 22.153 20.7342 22.5558C20.7349 22.6572 20.7451 33.1884 20.7451 33.1884C20.7545 33.831 20.7633 34.4953 20.964 35.0387C21.0665 35.3169 21.4991 35.6487 22.9804 35.6487C23.3607 35.6487 23.7301 35.6269 24.0268 35.6095C24.1576 35.6023 24.471 35.5871 24.471 35.5871C25.0644 35.5646 25.6789 35.5407 26.0533 35.1756C26.2177 35.0155 26.3609 34.7764 26.4685 34.4845C26.47 34.4758 26.6954 33.4348 27.2001 33.4348C27.3142 33.4348 27.4269 33.4724 27.5266 33.5442C27.9774 33.8694 27.8414 34.6576 27.632 35.5762C27.6058 35.6907 27.4575 36.5578 27.2859 36.8657C27.0343 37.3178 26.462 37.3301 26.1202 37.3374C26.1202 37.3388 25.316 37.3591 24.9575 37.3591Z" fill="#F9B242"/>
<path fill-rule="evenodd" clip-rule="evenodd" d="M44.3679 37.3002C44.5486 37.307 44.925 37.3213 45.13 37.3213C45.6492 37.3213 46.5181 37.3213 46.5181 36.704C46.5181 36.0926 45.7793 36.0796 45.4645 36.0745C45.4078 36.073 44.7621 35.918 44.5934 35.7833C43.7862 35.14 43.3332 33.9156 42.934 32.8348C42.8322 32.558 38.1355 21.027 37.8606 20.4388L37.8595 20.4364C37.7834 20.2753 37.5573 19.7962 37.1073 19.7962C36.5783 19.7962 36.3296 20.4472 36.1812 20.8357L36.1809 20.8365C36.1809 20.8365 31.1947 33.6078 31.1475 33.7324C30.6239 35.1182 30.1956 36.031 29.0489 36.0991C28.2992 36.1484 28.1509 36.4012 28.105 36.586C28.0781 36.6917 28.0534 36.9612 28.3915 37.1699C28.6031 37.3003 28.8475 37.3155 29.0125 37.3155C29.0852 37.3155 29.2565 37.3045 29.3777 37.2968C29.4384 37.2929 29.4866 37.2899 29.5034 37.2894C29.5909 37.287 29.7965 37.2766 30.0355 37.2645C30.4378 37.2442 30.9348 37.2191 31.1227 37.2191C31.186 37.2191 31.8186 37.2416 32.071 37.2539C32.071 37.2539 32.6483 37.285 32.7203 37.2923C32.8534 37.3061 33.5529 37.2821 33.7005 37.2025C33.9957 37.0445 34.0496 36.7859 34.0016 36.5968C33.9179 36.2657 33.5362 36.1114 33.3042 36.1114C33.1537 36.1114 32.9021 36.1114 32.8163 36.0274C32.5967 35.812 34.1829 31.7646 34.3515 31.3344C34.3609 31.3103 34.3659 31.2975 34.3659 31.2975C34.408 31.2779 39.2858 31.2779 39.2858 31.2779C39.3541 31.3661 40.7068 34.7898 41.1249 35.848C41.2014 36.0416 41.2466 36.156 41.247 36.1564C41.2419 36.1622 41.2193 36.1795 41.1597 36.1984C40.8848 36.2947 40.807 36.5186 40.8245 36.6809C40.8485 36.9047 40.9823 37.1264 41.8105 37.2293C42.6424 37.2887 43.483 37.2966 44.2669 37.2966C44.2733 37.2966 44.3109 37.2981 44.3679 37.3002ZM36.7432 24.5968C36.7432 24.5968 38.559 29.4122 38.6084 29.56H34.9755C35.0133 29.4485 36.7432 24.5968 36.7432 24.5968Z" fill="#F9B242"/>
<path d="M48.9638 37.3199C48.8257 37.3199 48.4061 37.3199 48.2003 37.0113C48.0243 36.7483 48.1029 36.5266 48.1451 36.444C48.3065 36.1238 48.9813 36.0891 48.9813 36.0891C49.3921 36.0318 49.4605 35.9232 49.5027 35.7993C49.691 35.2451 49.6794 34.5815 49.6677 33.9389C49.6648 33.7853 49.6626 31.27 49.6626 31.27C49.6626 30.6717 49.6212 30.0349 49.318 29.4278C49.1136 29.0185 48.8497 28.6121 48.5944 28.218C48.4948 28.0637 48.3945 27.9101 48.2985 27.7565C47.6942 26.7937 47.079 25.8367 46.4646 24.8797L45.5847 23.5076C45.2052 22.9143 44.8532 22.3876 44.3929 21.9544C44.1719 21.7465 43.9283 21.54 43.6432 21.4335C43.6069 21.4219 43.548 21.4147 43.4825 21.4045C43.18 21.356 42.5518 21.2546 42.5518 20.7062C42.5518 20.1926 43.007 20.1368 44.8016 20.1368C45.211 20.1368 45.6204 20.1418 45.9461 20.1462C46.1592 20.1491 46.3359 20.1513 46.453 20.1513L46.5468 20.1505C46.602 20.1491 46.6769 20.1404 46.7613 20.1317C46.9191 20.115 47.1038 20.0969 47.2717 20.0969C47.5561 20.0969 47.7575 20.1484 47.9065 20.2592C48.0709 20.3824 48.1509 20.5584 48.1283 20.7424C48.0862 21.088 47.7291 21.2387 47.4935 21.3386L47.4724 21.3473C47.4703 21.398 47.5124 21.5502 47.7357 21.9175L51.4136 27.9861C51.8259 27.19 54.2808 23.2273 54.656 22.5897C55.2734 21.5415 55.1032 21.3683 55.0632 21.3437L55.048 21.3444C54.8225 21.2647 54.4822 21.1437 54.4037 20.8214C54.3623 20.6526 54.411 20.478 54.5375 20.3425C54.7295 20.1368 55.016 20.1129 55.2138 20.1129C55.3446 20.1129 55.4828 20.1259 55.5977 20.1368C55.6515 20.1418 55.698 20.1469 55.733 20.1484C56.1598 20.1621 56.5801 20.1679 57.0026 20.1679C57.1829 20.1679 57.364 20.1672 57.5465 20.165C57.9057 20.1621 58.2627 20.1556 58.6219 20.1447C58.6808 20.1426 58.7368 20.1404 58.7986 20.1404C58.9913 20.1404 59.4415 20.1404 59.5913 20.5004C59.6414 20.6207 59.6858 20.8627 59.4211 21.1256C59.2095 21.3379 58.8968 21.3647 58.6205 21.3886C58.5412 21.3959 58.422 21.406 58.3842 21.4183C58.0889 21.5161 57.8054 21.7074 57.5414 21.9863C56.695 22.8831 56.0071 23.9821 55.3417 25.0449C55.2065 25.2615 53.454 28.0934 53.3711 28.2259C53.089 28.678 52.7967 29.1445 52.6382 29.6241C52.436 30.237 52.4731 31.031 52.508 31.7996C52.5211 32.0908 52.5407 33.944 52.5385 34.1063C52.532 34.7126 52.524 35.4001 52.7669 35.8638C52.8367 35.9971 52.9777 36.0347 53.3966 36.0347C53.3966 36.0347 54.107 36.0456 54.3652 36.1738C54.6728 36.3274 54.7346 36.5846 54.6895 36.7737C54.5964 37.1663 54.0714 37.2945 53.9012 37.2945C53.4577 37.2945 52.199 37.2576 52.0121 37.2482C51.7329 37.2351 51.4529 37.2214 51.1737 37.2214C51.0493 37.2214 50.1738 37.2576 49.8611 37.2692C49.8619 37.2706 49.1056 37.3199 48.9638 37.3199Z" fill="#F9B242"/>
<path d="M75.2258 37.312C75.1197 37.312 74.871 37.2946 74.8514 37.2946C74.0958 37.2873 72.1165 37.2207 72.0213 37.2207C71.7231 37.2207 71.4235 37.2359 71.1247 37.2518C70.9342 37.2613 70.375 37.2859 70.2833 37.2917C70.1343 37.3004 69.5315 37.2997 69.4035 37.2787C68.9774 37.2084 68.8261 36.9121 68.8261 36.6795C68.8261 36.5839 68.8596 36.1065 69.5198 36.1065L69.5889 36.1072C70.2295 36.0659 70.3815 35.9094 70.5066 35.1756C70.6251 34.4837 70.6353 33.747 70.6455 33.0348C70.6455 33.0348 70.6571 20.4317 70.6571 20.3331C70.6578 19.7934 70.6578 19.1813 70.4171 18.7915C70.2092 18.4554 69.4064 18.4554 69.0639 18.4554C68.6749 18.4554 68.4764 18.1953 68.456 17.9526C68.4298 17.6375 68.6778 17.3463 69.021 17.289C69.1664 17.2651 69.754 17.2579 69.8725 17.2622C69.9787 17.2666 71.0745 17.2926 71.505 17.3144C71.505 17.3144 74.1511 17.3571 74.5299 17.3535C74.911 17.3499 77.2931 17.3455 77.9512 17.3296C77.9512 17.3296 78.5569 17.3376 78.6617 17.3376C78.9307 17.3376 79.3117 17.3216 79.5124 17.1883C79.631 17.1094 79.7509 17.0695 79.8702 17.0695C80.0244 17.0695 80.1691 17.1383 80.268 17.2579C80.4897 17.5266 80.4483 17.9881 80.2876 18.8017C80.2767 18.8582 80.1916 20.0238 80.1909 20.0818C80.1872 20.4527 80.1829 20.9605 79.8237 21.188C79.7422 21.2394 79.6506 21.2662 79.5568 21.2662H79.5561C79.0827 21.2662 78.9482 20.72 78.7925 20.0876C78.7576 19.9463 78.7104 19.7521 78.6864 19.6993C78.3606 19.2617 77.6407 19.1979 77.3477 19.1921C77.3477 19.1921 73.6683 19.1016 73.6094 19.0994C73.5941 19.2349 73.6072 25.6687 73.6166 25.802L75.8621 25.7846C76.073 25.7846 76.2977 25.794 76.5296 25.8042C76.7616 25.8143 77.0008 25.8252 77.2372 25.8252C77.5898 25.8252 78.1025 25.8042 78.477 25.6194C78.4828 25.6115 78.5446 25.5339 78.586 25.4832C78.7453 25.2862 78.9431 25.0413 79.2594 25.0413C79.4274 25.0413 79.5808 25.1159 79.6811 25.2449C79.8796 25.5013 79.8069 25.8614 79.7233 26.1787C79.5946 26.7322 79.5692 27.303 79.5437 27.8558C79.5437 27.8558 79.5044 28.949 79.4652 29.1808C79.3852 29.6597 79.0543 29.6966 78.9554 29.6966C78.5235 29.6966 78.3163 29.1388 78.293 28.9461C78.2006 28.1659 77.9825 27.8225 77.4902 27.6797C77.1274 27.5747 76.7194 27.5602 76.3326 27.5602C76.3326 27.5602 73.7592 27.5066 73.6443 27.5066C73.6326 27.5066 73.6225 27.5066 73.6123 27.5066C73.6101 27.6145 73.621 27.7565 73.6261 27.8225C73.6312 27.8935 73.6275 32.4806 73.6639 33.5919L73.669 33.7549C73.6864 34.3265 73.7046 34.917 73.8333 35.4451C73.954 35.9392 74.2027 36.0304 74.9946 36.0884C74.9946 36.0884 75.18 36.084 75.2353 36.084C75.9937 36.084 76.1072 36.4571 76.1072 36.6795C76.1079 36.8273 76.0439 37.312 75.2258 37.312Z" fill="#F9B242"/>
<path fill-rule="evenodd" clip-rule="evenodd" d="M90.3357 37.5687C90.4564 37.5724 90.5771 37.5745 90.6978 37.5745C94.2107 37.5745 97.2779 35.9272 98.9024 33.167C100.722 30.0765 100.637 26.1609 98.6937 23.4225C97.0728 21.1405 94.2398 19.8314 90.9218 19.8314C90.4295 19.8314 89.9321 19.8618 89.445 19.9227C86.22 20.3226 83.4328 22.48 82.2563 25.4567C82.153 25.6321 82.0868 25.8653 82.0519 26.0334C81.1772 28.7972 81.6789 31.8855 83.3877 34.1581C84.9467 36.2314 87.4787 37.4746 90.3357 37.5687ZM85.5778 24.3308C86.5151 22.5646 88.4806 21.467 90.7079 21.467C91.6808 21.467 92.6371 21.6844 93.4726 22.0966C95.9202 23.3035 97.256 26.181 97.0451 29.7931C96.8909 32.4279 95.4904 35.3945 92.0219 35.8183C91.7761 35.848 91.5281 35.8632 91.2838 35.8632C88.6377 35.8632 86.217 34.0485 85.26 31.3478C84.4325 29.0107 84.5569 26.2563 85.5778 24.3308Z" fill="#F9B242"/>
<path fill-rule="evenodd" clip-rule="evenodd" d="M117.454 37.3076C117.747 37.3097 118.029 37.3117 118.091 37.3117C118.765 37.3117 119.108 37.1067 119.109 36.7039C119.109 36.1751 118.456 36.0831 117.63 35.9672C117.47 35.9447 117.249 35.9136 117.196 35.8969C116.067 35.4866 115.157 34.3862 114.353 33.4149L114.35 33.4113C114.215 33.2476 111.083 29.4167 111.083 29.4167C111.096 29.4059 111.11 29.3935 111.124 29.3812C112.624 28.0272 113.446 26.6225 113.638 25.0889C113.848 23.4161 113.022 21.7434 111.583 20.9269C110.37 20.2394 108.995 20.1445 107.689 20.1445C107.533 20.1445 107.049 20.1508 106.576 20.1569C106.126 20.1628 105.685 20.1685 105.551 20.1685C104.973 20.1685 104.395 20.1619 103.818 20.1547C103.237 20.1474 102.655 20.1402 102.074 20.1402C101.679 20.1402 101.306 20.4662 101.306 20.8118C101.306 21.0588 101.49 21.3247 101.895 21.3247C102.148 21.3247 102.374 21.3283 102.603 21.3718C103.015 21.4283 103.117 21.6036 103.177 22.3613C103.26 23.3908 103.205 32.8803 103.205 32.8803C103.204 33.6171 103.086 35.2681 103.086 35.2681C103.066 35.4535 103.018 35.8896 102.911 35.9838C102.849 36.0367 102.74 36.0432 102.567 36.0505C102.385 36.0577 102.159 36.0671 101.94 36.1758C101.542 36.375 101.58 36.6815 101.602 36.7713C101.724 37.2849 102.638 37.2943 102.698 37.2943H102.699C102.89 37.2906 103.262 37.2788 103.627 37.2671C104.046 37.2538 104.454 37.2407 104.568 37.2407C104.973 37.2407 106.067 37.2741 106.067 37.2741C106.503 37.2856 106.938 37.2965 107.375 37.2965C107.545 37.2965 108.07 37.1683 108.163 36.7756C108.208 36.5858 108.146 36.3287 107.838 36.1758C107.565 36.0396 107.276 36.028 106.981 36.028C106.981 36.028 106.375 36.0063 106.263 35.8766C106.028 35.6083 106.021 34.9763 106.016 34.5143L106.016 34.5117C106.016 34.4916 106.015 34.4231 106.013 34.3208C106.005 33.8715 105.985 32.7702 105.983 32.2457C105.983 32.2457 105.965 30.3824 105.963 30.3607C105.976 30.3614 108.511 30.4143 108.511 30.4143C108.673 30.4168 110.586 32.9924 111.244 33.879C111.351 34.0228 111.424 34.1222 111.452 34.1589L111.454 34.1609C112.193 35.1327 113.03 36.2334 114.163 36.8162C114.973 37.2436 115.876 37.303 116.732 37.303C116.811 37.303 117.139 37.3054 117.454 37.3076ZM106.906 28.7547C106.293 28.7134 106.062 28.6439 105.98 28.5874C105.98 28.5874 105.946 21.921 105.973 21.8174C106.378 21.7421 106.781 21.7044 107.172 21.7044C107.865 21.7044 108.847 21.829 109.583 22.4223C110.594 23.2366 110.806 24.5761 110.806 25.557C110.806 26.1757 110.693 28.2302 109.239 28.7185C108.977 28.8069 108.655 28.8496 108.256 28.8496C107.93 28.8496 107.291 28.7902 107.023 28.7653C106.962 28.7596 106.92 28.7557 106.906 28.7547Z" fill="#F9B242"/>
<path d="M121.189 37.296C121.039 37.296 120.484 37.1685 120.401 36.7649C120.361 36.5744 120.431 36.3223 120.747 36.1868C120.943 36.1028 121.146 36.0876 121.325 36.0745C121.453 36.0651 121.574 36.0557 121.654 36.0245C121.755 35.9847 121.814 35.8587 121.874 35.5587C122.086 34.4866 122.061 33.3108 122.037 32.1734C122.029 31.7945 122.021 31.42 122.021 31.052L122.021 21.9616C121.738 21.9609 120.54 21.9421 120.228 21.9421C119.578 21.9421 118.733 21.9616 117.952 22.1159C117.512 22.2029 117.205 22.4868 117.015 22.9838C116.977 23.0838 116.696 23.5945 116.282 23.5945C116.098 23.5945 115.936 23.4953 115.849 23.3294C115.801 23.2366 115.777 23.1265 115.777 22.9918C115.777 22.7063 116.22 20.4359 116.52 20.0389C116.576 19.9643 116.705 19.839 116.944 19.839C117.135 19.839 117.343 19.923 117.527 19.9976C117.582 20.0201 118.455 20.144 118.858 20.1621C118.858 20.1621 120.982 20.2345 122.261 20.2345C123.174 20.2345 124.087 20.2237 125 20.2128C125.915 20.2019 126.828 20.1911 127.739 20.1911C128.494 20.1911 129.219 20.1099 129.987 20.0237L130.246 19.9947L130.282 19.994C130.43 19.994 130.567 20.0556 130.67 20.1664C130.91 20.4265 130.833 22.4977 130.836 22.5615C130.853 22.97 130.875 23.4786 130.535 23.7104C130.426 23.785 130.311 23.8227 130.195 23.8227C129.662 23.8227 129.606 23.2069 129.582 22.9432C129.579 22.9114 129.577 22.8838 129.574 22.865C129.493 22.0797 128.28 22.0109 127.149 22.0058L124.894 21.9674V30.61C124.894 30.9686 124.889 31.3294 124.886 31.6909C124.873 32.8638 124.858 34.0765 124.993 35.2342C125.054 35.8145 125.182 35.9651 125.677 36.047C125.739 36.0571 126.026 36.0571 126.026 36.0571C126.273 36.0571 126.533 36.0666 126.752 36.1752C127.15 36.3745 127.111 36.6831 127.09 36.7729C126.97 37.2735 126.112 37.296 126.104 37.296C125.65 37.2938 125.199 37.2844 124.75 37.2757C124.232 37.2648 123.716 37.2547 123.198 37.2547C122.866 37.2547 122.035 37.2764 122.035 37.2764C121.752 37.2858 121.47 37.296 121.189 37.296Z" fill="#F9B242"/>
<path d="M166.557 37.3216C166.16 37.3216 165.856 37.147 165.608 36.9253C165.608 36.9253 155.658 26.9997 153.68 24.8546C153.68 24.8546 153.912 34.1195 153.914 34.2246C153.927 34.7817 153.941 35.4742 154.217 35.8597C154.304 35.9314 154.743 35.9973 154.98 36.0328C155.517 36.1132 156.073 36.1965 156.073 36.7051C156.073 37.2586 155.41 37.2984 154.32 37.2984C153.868 37.2984 153.373 37.2839 152.959 37.2723C152.667 37.2636 152.041 37.2651 152.041 37.2651C151.868 37.2796 151.51 37.3078 151.166 37.3078C150.508 37.3078 150.176 37.2042 150.019 36.9514C149.92 36.792 149.914 36.5986 150.003 36.4218C150.173 36.0835 150.605 36.0777 150.921 36.0734C150.972 36.0726 151.015 36.0726 151.045 36.0697C151.401 36.0118 151.481 35.9415 151.529 35.7952C151.707 35.2649 151.693 34.6223 151.679 34.0007C151.676 33.8348 151.67 21.3642 151.67 21.3642C151.654 20.8462 151.664 20.3159 151.945 20.0269C152.065 19.9037 152.225 19.8364 152.395 19.8364C152.92 19.8364 153.317 20.3058 153.637 20.6825C153.702 20.76 164.426 31.9991 165.21 32.8032L165.048 25.1726C165.042 24.8879 165.049 24.5771 165.056 24.2533C165.075 23.3767 165.096 22.3828 164.848 21.6844C164.737 21.3693 164.187 21.3258 163.61 21.3258H163.482C163.098 21.3258 162.908 21.0643 162.893 20.8209C162.874 20.4942 163.146 20.195 163.498 20.1537C163.66 20.1348 163.835 20.1254 164.034 20.1254C164.242 20.1254 164.89 20.1573 165.004 20.1602C165.371 20.1718 165.734 20.1826 166.097 20.1826C166.323 20.1826 167.526 20.1406 167.994 20.1406C168.426 20.1406 168.792 20.4391 168.792 20.7926C168.792 20.9752 168.695 21.1404 168.531 21.2345C168.426 21.2954 168.3 21.3251 168.146 21.3251C167.487 21.3251 167.333 21.52 167.28 21.88C167.238 22.1713 167.237 22.4726 167.237 22.7914L167.186 35.5387C167.185 35.806 167.184 36.0734 167.173 36.3414C167.173 36.3414 167.172 37.0818 166.967 37.2912C166.867 37.3926 166.699 37.3216 166.557 37.3216Z" fill="#F9B242"/>
<path fill-rule="evenodd" clip-rule="evenodd" d="M183.973 37.3003C184.152 37.3071 184.529 37.3215 184.735 37.3215C185.254 37.3215 185.829 37.299 185.828 36.6825C185.828 36.0866 185.408 36.0804 185.094 36.0758C185.086 36.0757 185.078 36.0755 185.07 36.0754C185.054 36.075 185.039 36.0747 185.024 36.0744C184.987 36.0737 184.957 36.0731 184.936 36.0711C184.61 36.0131 184.368 35.9189 184.199 35.7842C183.392 35.1409 182.939 33.9151 182.54 32.8342C182.438 32.5582 177.74 21.0214 177.467 20.4397L177.467 20.4387C177.391 20.2784 177.165 19.7971 176.714 19.7971C176.185 19.7971 175.936 20.4491 175.787 20.8389C175.787 20.8389 170.802 33.608 170.755 33.7326C170.231 35.1184 169.803 36.0319 168.656 36.1C167.907 36.1493 167.759 36.4014 167.712 36.5869C167.686 36.6926 167.661 36.9621 167.999 37.1708C168.211 37.3012 168.455 37.3164 168.62 37.3164C168.73 37.3164 168.842 37.3084 168.945 37.3004L168.96 37.2994C169.014 37.2954 169.066 37.2916 169.111 37.2903C169.345 37.2838 169.579 37.2702 169.814 37.2565L169.818 37.2563L169.855 37.2541C170.145 37.2374 170.444 37.22 170.731 37.22C170.794 37.22 170.858 37.2208 170.921 37.2229C171.149 37.2288 171.378 37.2401 171.606 37.2513C171.63 37.2524 171.655 37.2536 171.679 37.2548L172.133 37.2758C172.183 37.2777 172.241 37.2837 172.304 37.29C172.312 37.2908 172.32 37.2917 172.328 37.2925C172.462 37.3062 172.609 37.3207 172.748 37.3207C172.978 37.3207 173.161 37.2823 173.309 37.2026C173.604 37.0447 173.657 36.7861 173.609 36.597C173.525 36.2659 173.144 36.1116 172.912 36.1116C172.762 36.1116 172.51 36.1116 172.424 36.0276C172.191 35.8001 172.64 34.7424 172.81 34.3447L172.816 34.3305C172.88 34.1783 172.938 34.0413 172.98 33.9282C172.98 33.9282 173.974 31.2977 173.973 31.2977C174.016 31.2781 178.894 31.2781 178.894 31.2781C178.974 31.3825 180.836 36.095 180.836 36.095C180.846 36.1213 180.85 36.1394 180.852 36.1491C180.853 36.1538 180.853 36.1566 180.854 36.1573C180.849 36.1623 180.827 36.1797 180.765 36.1993C180.493 36.2956 180.416 36.5173 180.432 36.6782C180.466 37.0273 180.808 37.144 181.417 37.2295C182.249 37.2889 183.09 37.2968 183.874 37.2968C183.88 37.2968 183.917 37.2982 183.973 37.3003ZM176.347 24.5974C176.347 24.5974 178.163 29.4135 178.213 29.5606H174.58C174.617 29.4483 176.347 24.5974 176.347 24.5974Z" fill="#F9B242"/>
<path d="M54.1948 3.67241C54.1948 4.41289 54.0709 5.05998 53.8233 5.61368C53.5823 6.1607 53.2108 6.58765 52.7088 6.89452C52.2067 7.20138 51.5642 7.35482 50.781 7.35482C50.0045 7.35482 49.3619 7.20138 48.8532 6.89452C48.3512 6.58765 47.9763 6.15737 47.7286 5.60367C47.4877 5.04997 47.3672 4.40288 47.3672 3.6624C47.3672 2.92191 47.4877 2.27816 47.7286 1.73113C47.9763 1.18411 48.3512 0.760498 48.8532 0.460302C49.3619 0.153434 50.0079 0 50.791 0C51.5675 0 52.2067 0.153434 52.7088 0.460302C53.2108 0.760498 53.5823 1.18744 53.8233 1.74114C54.0709 2.28817 54.1948 2.93192 54.1948 3.67241ZM48.9636 3.67241C48.9636 4.41956 49.1076 5.00995 49.3954 5.44356C49.6832 5.87051 50.1451 6.08398 50.781 6.08398C51.4303 6.08398 51.8955 5.87051 52.1766 5.44356C52.4578 5.00995 52.5983 4.41956 52.5983 3.67241C52.5983 2.91858 52.4578 2.32819 52.1766 1.90125C51.8955 1.4743 51.4336 1.26083 50.791 1.26083C50.1484 1.26083 49.6832 1.4743 49.3954 1.90125C49.1076 2.32819 48.9636 2.91858 48.9636 3.67241Z" fill="white"/>
<path d="M63.0395 7.25475H61.1117L57.9891 1.85121H57.9489C57.9623 2.19144 57.9757 2.53166 57.9891 2.87188C58.0092 3.2121 58.0259 3.55233 58.0393 3.89255V7.25475H56.6838V0.110072H58.6016L61.7142 5.46358H61.7443C61.7376 5.13003 61.7275 4.79981 61.7142 4.47293C61.7008 4.14605 61.6874 3.81917 61.674 3.49229V0.110072H63.0395V7.25475Z" fill="white"/>
<path d="M65.8557 7.25475V0.110072H67.3718V6.00393H70.2836V7.25475H65.8557Z" fill="white"/>
<path d="M75.2178 7.25475H71.9546V6.39419L72.8281 5.99393V1.3709L71.9546 0.970636V0.110072H75.2178V0.970636L74.3443 1.3709V5.99393L75.2178 6.39419V7.25475Z" fill="white"/>
<path d="M83.7992 7.25475H81.8714L78.7488 1.85121H78.7086C78.722 2.19144 78.7354 2.53166 78.7488 2.87188C78.7689 3.2121 78.7856 3.55233 78.799 3.89255V7.25475H77.4435V0.110072H79.3613L82.4738 5.46358H82.504C82.4973 5.13003 82.4872 4.79981 82.4738 4.47293C82.4604 4.14605 82.4471 3.81917 82.4337 3.49229V0.110072H83.7992V7.25475Z" fill="white"/>
<path d="M90.742 7.25475H86.6153V0.110072H90.742V1.35088H88.1315V2.92191H90.5613V4.16273H88.1315V6.00393H90.742V7.25475Z" fill="white"/>
<path d="M99.8924 1.27083C99.31 1.27083 98.8649 1.48764 98.557 1.92126C98.249 2.35488 98.0951 2.9486 98.0951 3.70243C98.0951 4.46292 98.2357 5.05331 98.5168 5.47359C98.8046 5.88719 99.2631 6.09399 99.8924 6.09399C100.187 6.09399 100.478 6.06064 100.766 5.99393C101.06 5.92722 101.378 5.83382 101.72 5.71374V6.98457C101.405 7.11132 101.094 7.20472 100.786 7.26476C100.478 7.3248 100.133 7.35482 99.7518 7.35482C99.0155 7.35482 98.4064 7.20472 97.9244 6.90452C97.4492 6.59765 97.0977 6.17071 96.8701 5.62368C96.6426 5.06999 96.5288 4.42623 96.5288 3.69242C96.5288 2.97195 96.6593 2.33486 96.9203 1.78117C97.1814 1.22747 97.5596 0.793853 98.0549 0.480314C98.557 0.166776 99.1694 0.0100065 99.8924 0.0100065C100.247 0.0100065 100.602 0.0567037 100.957 0.150098C101.318 0.236822 101.663 0.3569 101.991 0.510334L101.499 1.74114C101.231 1.61439 100.96 1.50432 100.686 1.41092C100.418 1.31753 100.153 1.27083 99.8924 1.27083Z" fill="white"/>
<path d="M108.635 7.25475L108.113 5.55364H105.502L104.98 7.25475H103.343L105.874 0.0800526H107.731L110.271 7.25475H108.635ZM107.229 2.62172C107.196 2.50831 107.152 2.36488 107.099 2.19144C107.045 2.01799 106.992 1.84121 106.938 1.66109C106.884 1.48097 106.841 1.3242 106.807 1.19078C106.774 1.3242 106.727 1.49098 106.667 1.69111C106.613 1.88457 106.56 2.07136 106.506 2.25147C106.459 2.42492 106.423 2.54834 106.396 2.62172L105.884 4.2828H107.751L107.229 2.62172Z" fill="white"/>
<path d="M116.411 5.27345C116.411 5.9072 116.18 6.4142 115.718 6.79445C115.263 7.16803 114.613 7.35482 113.77 7.35482C113.014 7.35482 112.337 7.21139 111.742 6.92454V5.51361C112.083 5.66037 112.435 5.79713 112.796 5.92388C113.164 6.04396 113.529 6.104 113.89 6.104C114.265 6.104 114.53 6.03395 114.684 5.89386C114.844 5.7471 114.925 5.56364 114.925 5.3435C114.925 5.16338 114.861 5.00995 114.734 4.8832C114.613 4.75645 114.449 4.63971 114.242 4.53297C114.034 4.41956 113.797 4.29948 113.529 4.17273C113.362 4.09268 113.181 3.99929 112.987 3.89255C112.793 3.77914 112.605 3.64239 112.424 3.48228C112.25 3.31551 112.107 3.11537 111.993 2.88189C111.879 2.6484 111.822 2.36822 111.822 2.04134C111.822 1.40092 112.04 0.903925 112.475 0.55036C112.91 0.190124 113.502 0.0100065 114.252 0.0100065C114.627 0.0100065 114.981 0.0533683 115.316 0.140092C115.658 0.226815 116.012 0.350229 116.38 0.510334L115.888 1.69111C115.561 1.55769 115.266 1.45429 115.005 1.3809C114.744 1.30752 114.476 1.27083 114.202 1.27083C113.914 1.27083 113.693 1.33754 113.539 1.47096C113.385 1.60438 113.308 1.77783 113.308 1.9913C113.308 2.2448 113.422 2.44493 113.649 2.5917C113.877 2.73846 114.215 2.91858 114.664 3.13205C115.032 3.3055 115.343 3.48562 115.597 3.67241C115.858 3.85919 116.059 4.07934 116.2 4.33284C116.34 4.58634 116.411 4.89988 116.411 5.27345Z" fill="white"/>
<path d="M121.399 7.25475H118.135V6.39419L119.009 5.99393V1.3709L118.135 0.970636V0.110072H121.399V0.970636L120.525 1.3709V5.99393L121.399 6.39419V7.25475Z" fill="white"/>
<path d="M129.98 7.25475H128.052L124.93 1.85121H124.889C124.903 2.19144 124.916 2.53166 124.93 2.87188C124.95 3.2121 124.966 3.55233 124.98 3.89255V7.25475H123.624V0.110072H125.542L128.655 5.46358H128.685C128.678 5.13003 128.668 4.79981 128.655 4.47293C128.641 4.14605 128.628 3.81917 128.614 3.49229V0.110072H129.98V7.25475Z" fill="white"/>
<path d="M139.302 3.67241C139.302 4.41289 139.179 5.05998 138.931 5.61368C138.69 6.1607 138.318 6.58765 137.816 6.89452C137.314 7.20138 136.672 7.35482 135.889 7.35482C135.112 7.35482 134.47 7.20138 133.961 6.89452C133.459 6.58765 133.084 6.15737 132.836 5.60367C132.595 5.04997 132.475 4.40288 132.475 3.6624C132.475 2.92191 132.595 2.27816 132.836 1.73113C133.084 1.18411 133.459 0.760498 133.961 0.460302C134.47 0.153434 135.115 0 135.899 0C136.675 0 137.314 0.153434 137.816 0.460302C138.318 0.760498 138.69 1.18744 138.931 1.74114C139.179 2.28817 139.302 2.93192 139.302 3.67241ZM134.071 3.67241C134.071 4.41956 134.215 5.00995 134.503 5.44356C134.791 5.87051 135.253 6.08398 135.889 6.08398C136.538 6.08398 137.003 5.87051 137.284 5.44356C137.565 5.00995 137.706 4.41956 137.706 3.67241C137.706 2.91858 137.565 2.32819 137.284 1.90125C137.003 1.4743 136.541 1.26083 135.899 1.26083C135.256 1.26083 134.791 1.4743 134.503 1.90125C134.215 2.32819 134.071 2.91858 134.071 3.67241Z" fill="white"/>
<path fill-rule="evenodd" clip-rule="evenodd" d="M144.894 29.4277H142.45H142.344L144.526 27.6091H144.527C144.763 28.1694 144.894 28.7833 144.894 29.4277Z" fill="#62828D"/>
<path fill-rule="evenodd" clip-rule="evenodd" d="M142.45 29.4277H144.894C144.894 30.0646 144.766 30.6734 144.535 31.2273L142.45 29.4277Z" fill="#CBE1E8"/>
<path fill-rule="evenodd" clip-rule="evenodd" d="M144.535 31.2273L141.694 30.9849H141.693L140.122 29.4277H142.344H142.45L144.535 31.2273Z" fill="#62828D"/>
<path fill-rule="evenodd" clip-rule="evenodd" d="M141.694 30.9849L144.535 31.2273C144.293 31.808 143.939 32.33 143.495 32.7677L141.768 31.0576L141.694 30.9849Z" fill="#62828D"/>
<path fill-rule="evenodd" clip-rule="evenodd" d="M144.526 27.6091L142.344 29.4277H140.122L141.693 27.8707L141.768 27.7967L144.526 27.6091Z" fill="#B4CBD6"/>
<path fill-rule="evenodd" clip-rule="evenodd" d="M144.526 27.6091L141.768 27.7967L143.495 26.0865C143.932 26.5192 144.285 27.0361 144.526 27.6091Z" fill="#62828D"/>
<path fill-rule="evenodd" clip-rule="evenodd" d="M143.495 32.7676V32.769C143.058 33.2016 142.537 33.5514 141.957 33.79L141.768 31.0575L143.495 32.7676Z" fill="#A3B0BC"/>
<path fill-rule="evenodd" clip-rule="evenodd" d="M143.495 26.0868L141.768 27.7971L141.693 27.8711L141.939 25.0583C142.526 25.2982 143.053 25.6492 143.495 26.0868Z" fill="#B4CBD6"/>
<path fill-rule="evenodd" clip-rule="evenodd" d="M141.768 31.0575L141.957 33.79L140.12 31.6292V29.4277H140.121L141.693 30.9848H141.694L141.768 31.0575Z" fill="#475552"/>
<mask id="mask0_314_122" style="mask-type:alpha" maskUnits="userSpaceOnUse" x="140" y="31" width="2" height="4">
<path fill-rule="evenodd" clip-rule="evenodd" d="M140.12 31.6292H141.957V34.1538H140.12V31.6292Z" fill="white"/>
</mask>
<g mask="url(#mask0_314_122)">
<path fill-rule="evenodd" clip-rule="evenodd" d="M140.12 31.6292L141.957 33.79C141.392 34.0248 140.771 34.1538 140.12 34.1538V31.7339V31.6292Z" fill="#62828D"/>
</g>
<path fill-rule="evenodd" clip-rule="evenodd" d="M141.939 25.0583L141.693 27.8711L140.121 29.428H140.12V29.4269V27.2254V27.122L141.939 25.0583Z" fill="#62828D"/>
<mask id="mask1_314_122" style="mask-type:alpha" maskUnits="userSpaceOnUse" x="140" y="24" width="2" height="4">
<path fill-rule="evenodd" clip-rule="evenodd" d="M140.12 24.7018H141.939V27.1216H140.12V24.7018Z" fill="white"/>
</mask>
<g mask="url(#mask1_314_122)">
<path fill-rule="evenodd" clip-rule="evenodd" d="M141.939 25.0579L140.12 27.1215V24.7017C140.765 24.7017 141.378 24.8281 141.939 25.0579Z" fill="#CBE1E8"/>
</g>
<path fill-rule="evenodd" clip-rule="evenodd" d="M140.12 31.7339V34.1538C139.475 34.1538 138.862 34.0274 138.302 33.7976L140.12 31.7339Z" fill="#475552"/>
<path fill-rule="evenodd" clip-rule="evenodd" d="M140.12 31.6292V31.7339L138.302 33.7976L138.547 30.9848L140.12 29.4277V31.6292Z" fill="#A3B0BC"/>
<path fill-rule="evenodd" clip-rule="evenodd" d="M137.897 29.4277H137.791L135.707 27.627L138.549 27.8708L140.121 29.4265V29.4277H137.897Z" fill="#62828D"/>
<path fill-rule="evenodd" clip-rule="evenodd" d="M140.12 27.2254V29.4269L138.549 27.8712L138.473 27.7958L138.285 25.0647L140.12 27.2254Z" fill="#CBE1E8"/>
<path fill-rule="evenodd" clip-rule="evenodd" d="M140.12 27.1216V27.225L138.285 25.0643C138.849 24.8307 139.469 24.7018 140.12 24.7018V27.1216Z" fill="#B4CBD6"/>
<path fill-rule="evenodd" clip-rule="evenodd" d="M138.548 30.9848L138.475 31.0589L138.473 31.0575L135.715 31.2451L137.897 29.4277H140.121L138.548 30.9848Z" fill="#B4CBD6"/>
<path fill-rule="evenodd" clip-rule="evenodd" d="M138.549 27.8708L135.707 27.627C135.948 27.0463 136.304 26.523 136.746 26.0865H136.747L138.473 27.7954L138.549 27.8708Z" fill="#B4CBD6"/>
<path fill-rule="evenodd" clip-rule="evenodd" d="M138.474 31.0589L138.548 30.9848L138.303 33.7976C137.715 33.5591 137.188 33.2067 136.746 32.769L138.474 31.0589Z" fill="#62828D"/>
<path fill-rule="evenodd" clip-rule="evenodd" d="M138.475 31.0589L136.746 32.769C136.308 32.3364 135.954 31.8194 135.713 31.2451H135.715L138.473 31.0575L138.475 31.0589Z" fill="#475552"/>
<path fill-rule="evenodd" clip-rule="evenodd" d="M138.284 25.0647L138.473 27.7958L136.747 26.0869C137.184 25.653 137.704 25.3046 138.284 25.0647Z" fill="#62828D"/>
<path fill-rule="evenodd" clip-rule="evenodd" d="M137.897 29.4277L135.714 31.2451H135.713C135.477 30.6861 135.347 30.0724 135.347 29.4277H137.791H137.897Z" fill="#A3B0BC"/>
<path fill-rule="evenodd" clip-rule="evenodd" d="M137.791 29.4277H135.347C135.347 28.7896 135.474 28.1821 135.706 27.627L137.791 29.4277Z" fill="#CBE1E8"/>
<path fill-rule="evenodd" clip-rule="evenodd" d="M146.464 23.5122C147.044 24.8792 147.839 26.7508 148.108 28.3092C148.295 29.3928 148.74 33.123 146.583 35.6218C145.22 37.2 143.052 38 140.137 38C137.222 38 135.053 37.2 133.691 35.6218C131.534 33.123 131.977 29.3928 132.165 28.3092C132.435 26.7508 133.229 24.8792 133.81 23.5122L133.811 23.51C134.289 22.3813 134.54 21.7762 134.555 21.4155C134.584 20.734 134.369 20.1682 134.269 19.9457V18.4402H136.178L136.532 18.7864V20.3559C136.374 20.9209 135.031 25.7252 134.593 27.5347C134.283 28.8139 134.147 31.4575 135.598 33.2524C136.589 34.4779 138.116 35.0997 140.136 35.0997C142.157 35.0997 143.684 34.4779 144.675 33.2524C146.125 31.4583 145.989 28.8139 145.68 27.5347C145.243 25.7252 143.9 20.9209 143.741 20.3551V18.7864L144.095 18.4402H146.004V19.9457C145.905 20.1682 145.69 20.734 145.718 21.4155C145.733 21.7762 145.984 22.3813 146.463 23.51L146.464 23.5122ZM133.137 32.5955C133.137 32.6887 133.214 32.7645 133.309 32.7645C133.404 32.7645 133.481 32.6887 133.481 32.5955C133.481 32.5022 133.404 32.4265 133.309 32.4265C133.214 32.4265 133.137 32.5022 133.137 32.5955ZM134.359 34.9123C134.214 34.9123 134.096 34.7969 134.096 34.6546C134.096 34.5123 134.214 34.397 134.359 34.397C134.504 34.397 134.621 34.5123 134.621 34.6546C134.621 34.7969 134.504 34.9123 134.359 34.9123ZM136.197 35.9412C136.197 36.2252 136.432 36.456 136.722 36.456C137.012 36.456 137.247 36.2252 137.247 35.9412C137.247 35.6572 137.012 35.4265 136.722 35.4265C136.432 35.4265 136.197 35.6566 136.197 35.9412ZM140.138 37.4855C139.702 37.4855 139.35 37.1398 139.35 36.7134C139.35 36.2869 139.702 35.9413 140.138 35.9413C140.573 35.9413 140.925 36.2869 140.925 36.7134C140.925 37.1398 140.573 37.4855 140.138 37.4855ZM143.027 35.9412C143.027 36.2252 143.262 36.456 143.552 36.456C143.842 36.456 144.077 36.2252 144.077 35.9412C144.077 35.6572 143.842 35.4265 143.552 35.4265C143.262 35.4265 143.027 35.6566 143.027 35.9412ZM145.389 34.9123C145.244 34.9123 145.127 34.7969 145.127 34.6546C145.127 34.5123 145.244 34.397 145.389 34.397C145.534 34.397 145.652 34.5123 145.652 34.6546C145.652 34.7969 145.534 34.9123 145.389 34.9123ZM146.267 32.5955C146.267 32.6888 146.344 32.7645 146.439 32.7645C146.534 32.7645 146.612 32.6888 146.612 32.5955C146.612 32.5022 146.534 32.4265 146.439 32.4265C146.344 32.4265 146.267 32.5022 146.267 32.5955Z" fill="#F9B242"/>
<path fill-rule="evenodd" clip-rule="evenodd" d="M143.069 26.473L139.585 19.3943L143.417 25.9118L144.562 22.2549L144.362 26.2014L151.629 21.7487L144.445 26.6722L148.659 27.7408L144.528 27.1431L147.498 33.8412L144.18 27.7043L143.201 32.3023L143.748 27.7947L134.391 35.6146L143.234 27.4141L138.323 27.468L143.069 26.473Z" fill="white"/>
</svg>
