<svg width="132" height="33" viewBox="0 0 132 33" fill="none" xmlns="http://www.w3.org/2000/svg">
<g clip-path="url(#clip0_174_102)">
<path d="M10.5005 21.8319C11.6032 23.378 12.9938 24.6626 14.5845 25.6045C15.307 23.8189 14.9429 21.2705 12.693 20.0389C13.006 19.6318 13.3678 19.2706 13.769 18.9646C13.0281 18.5115 12.3661 17.9246 11.8123 17.2299C12.7393 17.9128 13.8288 18.2996 14.9536 18.3452C14.9572 18.3459 14.9608 18.3459 14.9643 18.3452C18.3277 18.3325 20.3841 15.7071 20.9595 14.8603C20.0469 14.9465 19.1385 14.6526 18.4236 14.0399C19.821 14.2903 21.5751 13.8594 21.5751 13.8594C20.5407 12.1563 19.0776 10.8002 17.3544 9.94715C15.4534 8.98292 10.4028 7.99641 6.62199 11.6902L6.6203 11.6914C5.51656 12.7452 4.6191 14.0225 3.97983 15.4496C4.17004 14.447 4.45884 13.4687 4.84141 12.531C3.03496 13.0499 1.19305 12.7194 0 12.389C1.27743 14.603 1.94877 18.1142 1.49919 20.8207C1.75416 20.7821 2.01295 20.7821 2.26793 20.8207C2.47436 20.8525 2.67663 20.9098 2.87064 20.9917C3.1053 27.3764 8.60064 32.4785 14.1185 32.7284C19.3753 32.9661 22.8999 28.7204 23.5447 27.9434C27.3659 23.3396 27.0041 17.7656 26.9212 16.7484C25.2085 19.7689 21.3975 20.5535 18.7725 18.5811C20.1515 23.1116 18.5915 27.9759 14.6301 29.5691C14.5997 29.5823 14.5687 29.5943 14.5378 29.6058C14.5034 29.6197 14.4691 29.6329 14.4348 29.6455C14.4106 29.6552 14.3864 29.6636 14.3622 29.6719C14.3262 29.6859 14.2902 29.6986 14.2541 29.7106C14.2384 29.7166 14.2226 29.7221 14.2069 29.7274H14.2046C12.6502 30.235 10.9943 30.269 9.42284 29.8255C9.42284 29.8255 11.2333 29.9688 12.8636 29.2819C11.0403 28.2367 10.6836 25.9279 11.1237 23.6031C10.8409 23.0461 10.6312 22.4501 10.5005 21.8319ZM16.6043 11.2129C16.8319 11.213 17.0514 11.3036 17.22 11.4672C17.3886 11.6308 17.4943 11.8556 17.5166 12.0979C17.5388 12.3402 17.476 12.5827 17.3403 12.7782C17.2046 12.9737 17.0058 13.1082 16.7825 13.1556C16.5592 13.2031 16.3274 13.16 16.1322 13.0347C15.937 12.9095 15.7923 12.7111 15.7263 12.4781C15.6603 12.2451 15.6777 11.9941 15.7751 11.7741C15.8725 11.554 16.0429 11.3805 16.2533 11.2874C16.3646 11.2382 16.4838 11.2128 16.6043 11.2129ZM20.8562 2.19438L18.3498 8.70348C16.9014 7.80636 15.2692 7.3034 13.5966 7.23879C11.9239 7.17418 10.262 7.54989 8.75691 8.33292L6.40418 2.19438L10.836 4.41305L13.6302 0L16.4244 4.41305L20.8562 2.19438ZM4.3989 7.89953C4.16668 7.89954 3.94165 7.81343 3.76214 7.65588C3.58263 7.49833 3.45975 7.27908 3.41445 7.03549C3.36914 6.79191 3.4042 6.53906 3.51366 6.32002C3.62312 6.10099 3.80021 5.92932 4.01475 5.83427C4.22929 5.73923 4.468 5.72668 4.69022 5.79877C4.91243 5.87086 5.1044 6.02313 5.23342 6.22964C5.36243 6.43614 5.42051 6.68409 5.39775 6.93126C5.37499 7.17842 5.2728 7.4095 5.1086 7.58511C5.0154 7.68479 4.90476 7.76387 4.78299 7.81782C4.66122 7.87176 4.5307 7.89953 4.3989 7.89953ZM22.8378 7.89953C22.6057 7.89953 22.3807 7.81343 22.2012 7.65591C22.0217 7.49838 21.8989 7.27918 21.8536 7.03565C21.8083 6.79212 21.8434 6.53932 21.9528 6.32034C22.0622 6.10135 22.2393 5.92972 22.4538 5.83469C22.6683 5.73966 22.9069 5.72711 23.1291 5.79918C23.3513 5.87125 23.5432 6.02347 23.6722 6.22992C23.8012 6.43637 23.8593 6.68427 23.8365 6.93138C23.8138 7.17849 23.7116 7.40952 23.5475 7.58511C23.3593 7.7864 23.104 7.89949 22.8378 7.89953Z" fill="url(#paint0_linear_174_102)"/>
<path d="M36.0004 24.8647C35.2803 24.5517 34.6464 24.0481 34.1582 23.4012L36.0899 20.9524C36.7576 21.8836 37.4791 22.3491 38.2543 22.3489C38.7668 22.3489 39.1573 22.1832 39.4258 21.8516C39.6941 21.5201 39.8283 21.0354 39.8284 20.3977V14.6393H35.4997V11.7123H43.3342V20.1681C43.3342 21.9026 42.9258 23.2035 42.1091 24.0708C41.292 24.9381 40.0906 25.3717 38.5048 25.3715C37.6467 25.384 36.795 25.2116 36.0004 24.8647Z" fill="white"/>
<path d="M47.627 24.5873C46.8131 24.1564 46.1305 23.4871 45.6586 22.6573C45.1868 21.8275 44.9451 20.8713 44.9617 19.9002C44.9477 18.9347 45.1897 17.9846 45.6599 17.1601C46.13 16.3357 46.809 15.6706 47.6181 15.242C48.5 14.7948 49.4638 14.5628 50.4397 14.5628C51.4157 14.5628 52.3795 14.7948 53.2614 15.242C54.0649 15.6646 54.7408 16.321 55.2112 17.1359C55.57 17.754 55.8047 18.4451 55.9006 19.1654C55.9964 19.8857 55.9512 20.6194 55.7679 21.32C55.5846 22.0206 55.2671 22.6728 54.8356 23.2353C54.4041 23.7978 53.8681 24.2582 53.2614 24.5873C52.3827 25.0405 51.4197 25.2759 50.4442 25.2759C49.4687 25.2759 48.5057 25.0405 47.627 24.5873ZM51.902 21.7272C52.2835 21.2873 52.4743 20.6783 52.4744 19.9002C52.4744 19.1351 52.2836 18.5357 51.902 18.102C51.7095 17.8958 51.4808 17.7322 51.2291 17.6206C50.9775 17.509 50.7077 17.4515 50.4352 17.4515C50.1627 17.4515 49.893 17.509 49.6413 17.6206C49.3896 17.7322 49.161 17.8958 48.9684 18.102C48.5868 18.5358 48.396 19.1352 48.3961 19.9002C48.3961 20.6783 48.5868 21.2873 48.9684 21.7272C49.1595 21.9362 49.3877 22.1022 49.6396 22.2155C49.8914 22.3289 50.1619 22.3872 50.4352 22.3872C50.7085 22.3872 50.979 22.3289 51.2309 22.2155C51.4827 22.1022 51.7109 21.9362 51.902 21.7272Z" fill="white"/>
<path d="M59.5398 24.5873C58.726 24.1564 58.0434 23.487 57.5716 22.6572C57.0997 21.8274 56.858 20.8713 56.8746 19.9002C56.8606 18.9347 57.1027 17.9847 57.5728 17.1602C58.0429 16.3358 58.7219 15.6707 59.5309 15.242C60.4128 14.7948 61.3766 14.5628 62.3526 14.5628C63.3286 14.5628 64.2924 14.7948 65.1742 15.242C65.9778 15.6646 66.6536 16.321 67.1241 17.1359C67.4828 17.754 67.7176 18.4451 67.8134 19.1654C67.9092 19.8857 67.8641 20.6194 67.6807 21.32C67.4974 22.0206 67.1799 22.6728 66.7484 23.2353C66.317 23.7978 65.7809 24.2582 65.1742 24.5873C64.2955 25.0405 63.3326 25.2759 62.357 25.2759C61.3815 25.2759 60.4185 25.0405 59.5398 24.5873ZM63.8148 21.7272C64.1965 21.2873 64.3873 20.6783 64.3874 19.9002C64.3874 19.1351 64.1965 18.5357 63.8148 18.102C63.6223 17.8958 63.3937 17.7322 63.142 17.6206C62.8904 17.509 62.6206 17.4515 62.3481 17.4515C62.0757 17.4515 61.8059 17.509 61.5542 17.6206C61.3026 17.7322 61.0739 17.8958 60.8814 18.102C60.4996 18.5358 60.3088 19.1352 60.3091 19.9002C60.3091 20.6783 60.4998 21.2873 60.8814 21.7272C61.0725 21.9362 61.3007 22.1022 61.5525 22.2155C61.8044 22.3289 62.0749 22.3872 62.3481 22.3872C62.6214 22.3872 62.8919 22.3289 63.1437 22.2155C63.3956 22.1022 63.6238 21.9362 63.8148 21.7272Z" fill="white"/>
<path d="M72.2662 24.4821C71.2482 23.915 70.3969 23.0575 69.8067 22.0047C69.2029 20.9176 68.8932 19.6725 68.9122 18.4082C68.8934 17.1439 69.2031 15.8988 69.8067 14.8116C70.397 13.7589 71.2483 12.9014 72.2662 12.3341C73.3565 11.729 74.5705 11.4233 75.7988 11.4446C76.8615 11.4271 77.9159 11.6487 78.8934 12.095C79.7886 12.51 80.5748 13.1538 81.1829 13.9698L78.9292 16.1507C78.118 15.1051 77.1342 14.5822 75.9777 14.582C75.3439 14.5698 74.7181 14.7346 74.1622 15.0603C73.6374 15.3727 73.2087 15.8412 72.928 16.409C72.6397 17.0303 72.4897 17.7145 72.4897 18.4081C72.4897 19.1017 72.6397 19.7859 72.928 20.4073C73.2085 20.9753 73.6373 21.4439 74.1622 21.756C74.7181 22.0818 75.3439 22.2467 75.9777 22.2343C77.1341 22.2343 78.118 21.7114 78.9292 20.6656L81.1829 22.8464C80.5749 23.6626 79.7887 24.3065 78.8934 24.7213C77.9158 25.1674 76.8615 25.389 75.7988 25.3717C74.5705 25.3931 73.3565 25.0873 72.2662 24.4821Z" fill="white"/>
<path d="M90.4127 15.7394C91.2591 16.5237 91.6825 17.7257 91.6827 19.3454V25.1038H88.5167V23.7646C88.0275 24.7722 87.0734 25.276 85.6546 25.2759C84.9834 25.2936 84.3171 25.1499 83.7049 24.8552C83.1966 24.6119 82.7648 24.2166 82.4618 23.7168C82.1782 23.2259 82.0323 22.6582 82.0414 22.0812C82.0414 21.0992 82.3932 20.3371 83.0968 19.7951C83.8003 19.2531 84.8855 18.9821 86.3522 18.9821H88.284C88.2243 17.8853 87.5386 17.3369 86.227 17.3367C85.7473 17.3392 85.2708 17.4199 84.8139 17.5759C84.3743 17.715 83.9622 17.9386 83.5977 18.236L82.4528 15.768C83.0542 15.3557 83.7164 15.0549 84.4115 14.8784C85.1682 14.6697 85.9464 14.5637 86.7279 14.5628C88.3377 14.5628 89.5659 14.955 90.4127 15.7394ZM87.6402 22.6742C87.9443 22.4617 88.1715 22.1445 88.284 21.7751V20.876H86.8173C85.8273 20.876 85.3325 21.2267 85.3327 21.9281C85.3282 22.0754 85.3567 22.2217 85.4158 22.3548C85.475 22.488 85.563 22.604 85.6726 22.6934C85.9432 22.8991 86.2712 23.0003 86.6027 22.9804C86.969 22.9885 87.3296 22.8821 87.6402 22.6742Z" fill="white"/>
<path d="M94.9558 24.9794C94.289 24.832 93.6487 24.5704 93.0598 24.2047L94.0793 21.7177C94.5687 22.0328 95.0992 22.2681 95.6534 22.416C96.2426 22.5855 96.8499 22.6722 97.46 22.6742C98.0085 22.6742 98.3991 22.6136 98.6317 22.4924C98.7327 22.4527 98.8201 22.3812 98.8824 22.2873C98.9446 22.1934 98.9789 22.0815 98.9805 21.9664C98.9805 21.7368 98.8404 21.5742 98.5601 21.4786C98.1233 21.3492 97.6778 21.2564 97.2275 21.2012C96.5601 21.1215 95.8993 20.9871 95.251 20.7994C94.7131 20.6369 94.2273 20.3193 93.8469 19.8812C93.4533 19.4349 93.2566 18.81 93.2567 18.0064C93.2493 17.3665 93.4447 16.7427 93.8111 16.2367C94.2356 15.6777 94.7956 15.2542 95.4299 15.0124C96.2457 14.6933 97.1103 14.5408 97.9788 14.5628C98.6819 14.5628 99.3832 14.6397 100.072 14.7924C100.678 14.9129 101.263 15.1323 101.807 15.4428L100.787 17.9107C99.9343 17.4022 98.973 17.1385 97.9966 17.1454C97.46 17.1454 97.0665 17.2124 96.816 17.3463C96.5657 17.4802 96.4406 17.6556 96.4405 17.8724C96.4405 18.1147 96.5776 18.2837 96.8518 18.3794C97.2976 18.5138 97.7519 18.6129 98.2113 18.6759C98.8816 18.7747 99.545 18.9217 100.197 19.1158C100.721 19.2816 101.194 19.5956 101.565 20.0247C101.952 20.4646 102.146 21.08 102.147 21.8707C102.152 22.5044 101.956 23.1213 101.592 23.6211C101.164 24.1821 100.597 24.6031 99.9553 24.836C99.1197 25.1493 98.238 25.2984 97.3528 25.2759C96.5458 25.2764 95.7414 25.1769 94.9558 24.9794Z" fill="white"/>
<path d="M103.81 13.0323C103.63 12.8584 103.486 12.6459 103.387 12.4086C103.289 12.1713 103.238 11.9146 103.238 11.6549C103.238 11.3953 103.289 11.1385 103.387 10.9012C103.486 10.664 103.63 10.4515 103.81 10.2775C104.226 9.89427 104.764 9.69578 105.312 9.7227C105.857 9.69545 106.391 9.88265 106.815 10.2488C106.999 10.4128 107.147 10.6193 107.246 10.8529C107.345 11.0865 107.393 11.3411 107.387 11.5975C107.394 11.8652 107.346 12.1312 107.247 12.3772C107.148 12.6232 107.001 12.8435 106.815 13.0228C106.401 13.4117 105.863 13.614 105.312 13.5871C104.764 13.6142 104.226 13.4157 103.81 13.0323ZM103.613 14.735H107.012V25.1038H103.613V14.735Z" fill="white"/>
<path d="M118.433 15.7105C119.166 16.4758 119.532 17.63 119.533 19.1732V25.1036H116.134V19.7663C116.134 18.3506 115.603 17.6428 114.542 17.6427C114.281 17.6307 114.02 17.6791 113.777 17.7848C113.535 17.8904 113.317 18.0508 113.138 18.255C112.786 18.6632 112.61 19.2753 112.61 20.0915V25.1036H109.212V14.7348H112.449V15.8636C112.833 15.4414 113.296 15.1119 113.809 14.8975C114.356 14.6699 114.939 14.5563 115.526 14.5627C116.73 14.5627 117.699 14.9453 118.433 15.7105Z" fill="white"/>
<path d="M123.718 24.5873C122.904 24.1564 122.222 23.487 121.75 22.6572C121.278 21.8274 121.036 20.8713 121.053 19.9002C121.039 18.9347 121.281 17.9846 121.751 17.1602C122.221 16.3358 122.9 15.6707 123.709 15.242C124.591 14.7948 125.555 14.5628 126.531 14.5628C127.507 14.5628 128.471 14.7948 129.353 15.242C130.156 15.6646 130.832 16.321 131.302 17.1359C131.661 17.754 131.896 18.4451 131.992 19.1653C132.087 19.8856 132.042 20.6193 131.859 21.3199C131.676 22.0205 131.358 22.6728 130.927 23.2352C130.495 23.7977 129.959 24.2581 129.353 24.5873C128.474 25.0405 127.511 25.2759 126.535 25.2759C125.56 25.2759 124.597 25.0405 123.718 24.5873ZM127.993 21.7272C128.375 21.2873 128.566 20.6783 128.566 19.9002C128.566 19.1351 128.375 18.5357 127.993 18.102C127.801 17.8958 127.572 17.7322 127.32 17.6206C127.069 17.509 126.799 17.4515 126.526 17.4515C126.254 17.4515 125.984 17.509 125.732 17.6206C125.481 17.7322 125.252 17.8958 125.06 18.102C124.678 18.5358 124.487 19.1352 124.487 19.9002C124.487 20.6783 124.678 21.2873 125.06 21.7272C125.251 21.9362 125.479 22.1022 125.731 22.2155C125.983 22.3289 126.253 22.3872 126.526 22.3872C126.8 22.3872 127.07 22.3289 127.322 22.2155C127.574 22.1022 127.802 21.9362 127.993 21.7272Z" fill="white"/>
</g>
<defs>
<linearGradient id="paint0_linear_174_102" x1="6.90657" y1="1.83048" x2="23.3942" y2="31.4944" gradientUnits="userSpaceOnUse">
<stop stop-color="#FFDF6E"/>
<stop offset="1" stop-color="#FFA12B"/>
</linearGradient>
<clipPath id="clip0_174_102">
<rect width="132" height="33" fill="white"/>
</clipPath>
</defs>
</svg>
