<svg width="133" height="33" viewBox="0 0 133 33" fill="none" xmlns="http://www.w3.org/2000/svg">
<path d="M24.7161 0.0278931L11.4806 10.1223L16.8415 14.2074L18.5861 12.8776V20.0962L0.16626 6.06V32.972H6.69723V19.2408L24.7161 32.9717V0.0278931Z" fill="#FF230A"/>
<path opacity="0.2" d="M18.5863 21.9036L18.586 20.0963L8.49097 12.4036L18.5863 21.9036Z" fill="black"/>
<path d="M43.8438 24.7358C36.4414 24.7358 35.2908 20.2216 35.2908 17.7491V17.2058C35.2908 14.6772 36.2868 10.3127 43.8438 10.3127H44.548C51.9504 10.3127 53.101 14.1714 53.101 15.8011V16.007H48.8588C48.7559 15.6325 48.2405 13.6842 44.1874 13.6842C40.3575 13.6842 39.4815 15.5576 39.4815 17.2995V17.5241C39.4815 19.1726 40.4948 21.3455 44.2216 21.3455C48.3609 21.3455 48.7729 19.1914 48.876 18.873H53.1182V19.0789C53.1182 20.8398 51.8472 24.7358 44.548 24.7358H43.8438Z" fill="white"/>
<path d="M65.8254 21.945H58.0797L56.929 24.4924H52.8584L59.3162 10.5562H64.503L71.3386 24.4924H67.0277L65.8254 21.945ZM61.8754 13.5721L59.5052 18.7979H64.3484L61.8754 13.5721Z" fill="white"/>
<path d="M78.8248 24.7358C72.1266 24.7358 71.3538 21.589 71.3538 19.7532V19.5473H75.5273C75.5787 20.3902 76.0252 21.7576 79.3227 21.7576H79.5632C82.9294 21.7576 83.3075 21.0269 83.3075 20.2777C83.3075 19.4724 82.9124 18.9667 79.9582 18.873L77.7598 18.8166C72.9853 18.6669 71.5255 16.9062 71.5255 14.7333V14.5647C71.5255 12.4854 72.6589 10.3127 78.4812 10.3127H79.6663C85.7118 10.3127 87.0857 12.6167 87.0857 14.7145V14.9019H82.9294C82.8435 14.3773 82.5861 13.2349 79.2368 13.2349H78.9621C75.8706 13.2349 75.6474 13.8343 75.6474 14.4337C75.6474 15.0331 75.9909 15.5761 78.6016 15.6325L80.7483 15.6698C85.5573 15.7635 87.4979 17.0372 87.4979 19.8096V20.0719C87.4979 22.3758 86.4332 24.7358 80.0099 24.7358L78.8248 24.7358Z" fill="white"/>
<path d="M93.2837 24.4924H89.282V10.5562H93.2837V24.4924Z" fill="white"/>
<path d="M100.136 10.5562L108.294 19.3224V10.5562H112.244V24.4924H108.294L99.6202 15.2578V24.4924H95.6702V10.5562H100.136Z" fill="white"/>
<path d="M123.851 10.3127C131.889 10.3127 132.834 14.7145 132.834 17.2058V17.7679C132.834 20.2216 131.906 24.7358 123.851 24.7358H123.113C115.023 24.7358 114.113 20.2216 114.113 17.7679V17.2058C114.113 14.7145 115.023 10.3127 123.113 10.3127H123.851ZM128.643 17.3371C128.643 15.7447 127.801 13.6842 123.473 13.6842C119.077 13.6842 118.304 15.7447 118.304 17.3371V17.5617C118.304 19.1538 119.145 21.3455 123.473 21.3455C127.767 21.3455 128.643 19.2102 128.643 17.599V17.3371Z" fill="white"/>
</svg>
