<svg width="169" height="19" viewBox="0 0 169 19" fill="none" xmlns="http://www.w3.org/2000/svg">
<path d="M5.712 18L0.072 1.2H3.672L7.776 14.112L11.856 1.2H15.48L9.816 18H5.712ZM17.0991 1.2H20.4111V18H17.0991V1.2ZM29.7849 1.2C31.4009 1.2 32.7609 1.744 33.8649 2.832C34.9689 3.92 35.5209 5.256 35.5209 6.84C35.5209 8.424 34.9689 9.76 33.8649 10.848C32.7609 11.936 31.4009 12.48 29.7849 12.48H26.8329V18H23.5209V1.2H29.7849ZM29.7849 9.384C30.4889 9.384 31.0729 9.144 31.5369 8.664C32.0009 8.168 32.2329 7.56 32.2329 6.84C32.2329 6.104 32.0009 5.496 31.5369 5.016C31.0729 4.536 30.4889 4.296 29.7849 4.296H26.8329V9.384H29.7849ZM37.6772 12.24V9.264H46.6772V12.24H37.6772ZM66.2824 8.976V10.272C66.2824 12.672 65.5144 14.616 63.9784 16.104C62.4424 17.592 60.4584 18.336 58.0264 18.336C55.4344 18.336 53.2824 17.496 51.5704 15.816C49.8744 14.12 49.0264 12.056 49.0264 9.624C49.0264 7.176 49.8664 5.104 51.5464 3.408C53.2424 1.712 55.3384 0.863999 57.8344 0.863999C59.4024 0.863999 60.8344 1.224 62.1304 1.944C63.4264 2.648 64.4344 3.592 65.1544 4.776L62.3224 6.408C61.9224 5.72 61.3144 5.16 60.4984 4.728C59.6984 4.296 58.8024 4.08 57.8104 4.08C56.2104 4.08 54.8904 4.608 53.8504 5.664C52.8264 6.704 52.3144 8.024 52.3144 9.624C52.3144 11.208 52.8344 12.52 53.8744 13.56C54.9304 14.584 56.3224 15.096 58.0504 15.096C59.3304 15.096 60.3864 14.816 61.2184 14.256C62.0664 13.68 62.6424 12.896 62.9464 11.904H57.8584V8.976H66.2824ZM78.8288 18L77.8208 14.976H71.1248L70.1168 18H66.5408L72.4208 1.2H76.5248L82.4288 18H78.8288ZM72.1808 11.88H76.7888L74.4848 5.016L72.1808 11.88ZM100.5 1.2V18H97.212V7.104L92.484 14.904H92.1L87.372 7.128V18H84.06V1.2H87.468L92.292 9.144L97.092 1.2H100.5ZM113.782 9.288C115.254 10.136 115.99 11.416 115.99 13.128C115.99 14.552 115.486 15.72 114.478 16.632C113.47 17.544 112.23 18 110.758 18H103.63V1.2H110.254C111.694 1.2 112.902 1.648 113.878 2.544C114.87 3.424 115.366 4.552 115.366 5.928C115.366 7.32 114.838 8.44 113.782 9.288ZM110.254 4.296H106.942V7.992H110.254C110.766 7.992 111.19 7.816 111.526 7.464C111.878 7.112 112.054 6.672 112.054 6.144C112.054 5.616 111.886 5.176 111.55 4.824C111.214 4.472 110.782 4.296 110.254 4.296ZM110.758 14.904C111.318 14.904 111.782 14.72 112.15 14.352C112.518 13.968 112.702 13.488 112.702 12.912C112.702 12.352 112.518 11.888 112.15 11.52C111.782 11.136 111.318 10.944 110.758 10.944H106.942V14.904H110.758ZM121.474 14.832H127.882V18H118.162V1.2H121.474V14.832ZM129.763 1.2H133.075V18H129.763V1.2ZM145.905 1.2H149.217V18H146.697L139.497 7.728V18H136.185V1.2H138.705L145.905 11.448V1.2ZM168.821 8.976V10.272C168.821 12.672 168.053 14.616 166.517 16.104C164.981 17.592 162.997 18.336 160.565 18.336C157.973 18.336 155.821 17.496 154.109 15.816C152.413 14.12 151.565 12.056 151.565 9.624C151.565 7.176 152.405 5.104 154.085 3.408C155.781 1.712 157.877 0.863999 160.373 0.863999C161.941 0.863999 163.373 1.224 164.669 1.944C165.965 2.648 166.973 3.592 167.693 4.776L164.861 6.408C164.461 5.72 163.853 5.16 163.037 4.728C162.237 4.296 161.341 4.08 160.349 4.08C158.749 4.08 157.429 4.608 156.389 5.664C155.365 6.704 154.853 8.024 154.853 9.624C154.853 11.208 155.373 12.52 156.413 13.56C157.469 14.584 158.861 15.096 160.589 15.096C161.869 15.096 162.925 14.816 163.757 14.256C164.605 13.68 165.181 12.896 165.485 11.904H160.397V8.976H168.821Z" fill="url(#paint0_linear_201_130)"/>
<defs>
<linearGradient id="paint0_linear_201_130" x1="164.164" y1="-3.06659" x2="91.3648" y2="1.01023" gradientUnits="userSpaceOnUse">
<stop stop-color="#7342FF"/>
<stop offset="1" stop-color="#5B89FF"/>
</linearGradient>
</defs>
</svg>
